<?xml version="1.0" encoding="utf-8"?>
<!-- Generator: Adobe Illustrator 18.1.1, SVG Export Plug-In . SVG Version: 6.00 Build 0)  -->
<!DOCTYPE svg PUBLIC "-//W3C//DTD SVG 1.1//EN" "http://www.w3.org/Graphics/SVG/1.1/DTD/svg11.dtd">
<svg version="1.1" xmlns="http://www.w3.org/2000/svg" xmlns:xlink="http://www.w3.org/1999/xlink" x="0px" y="0px"
	 viewBox="0 0 2472.8 1546.1" style="enable-background:new 0 0 2472.8 1546.1;" xml:space="preserve">
<style type="text/css">
	.st0{fill:url(#XMLID_2_);}
	.st1{fill:#CCCCCC;}
	.st2{fill:#CECECE;}
	.st3{fill:#DEDEDE;}
	.st4{fill:#C5C5C5;}
	.st5{fill:#E2E2E2;}
	.st6{fill:#BCBCBC;}
	.st7{opacity:0.7;fill:#33A4A6;}
</style>
<g id="_x5F_background">
	
		<radialGradient id="XMLID_2_" cx="1227.1328" cy="761.8033" r="1383.8755" gradientTransform="matrix(0.9681 0 0 0.9696 48.4058 34.4499)" gradientUnits="userSpaceOnUse">
		<stop  offset="0" style="stop-color:#666666"/>
		<stop  offset="1" style="stop-color:#333333"/>
	</radialGradient>
	<rect id="XMLID_14_" class="st0" width="2472.8" height="1546.1"/>
</g>
<g id="Layer_1">
	<g>
		<path class="st1" d="M892.6,1.2c2.5,0,5,0,7.4,0c4.1,2,8.3,2,12.4,0c9.1,0,18.2,0,27.3,0c2.1,1.8,4.1,1.8,6.2,0
			c5.4,0,10.8,0,16.1,0c0.6,1,1.6,1.3,2.6,1.5c-0.7,3-3.4,4.6-5.2,6.8c-13.3,16.2-26.5,32.3-39.9,48.4c-1.1,1.3-2.2,2.5-2.2,4.2
			c-1.3,1.7-2.7,3.5-4.5,5.8c3.2-0.4,5.6-0.9,8-0.8c7.5,0.3,14.9-0.8,22.2-1.7c11.9-1.4,23.8-2.1,35.7-3.1c11.7-1,23.3-2.6,35.1-3
			c6.3-0.3,12.8-0.4,19.1-1.4c10.6-1.7,21.3-2.3,32-3.1c7.2-0.6,14.4-1.4,21.6-1.8c5.5-0.3,11.2-0.2,16.6-1.3
			c6.9-1.4,14-1.2,20.9-1.8c7.3-0.7,14.8-1.4,22.2-1.9c5.7-0.4,11.6-0.2,17.3-1.1c11.4-1.8,23-2.2,34.4-3.2
			c7.4-0.7,14.8-1.5,22.2-1.8c5.3-0.2,10.7-0.8,16-1.3c9-0.9,18-1.9,27.1-2.3c11.3-0.5,22.6-1.7,33.9-2.7c1.8-0.2,3.7-1,5.5-0.9
			c7.5,0.4,14.8-1.2,22.2-1.6c5.9-0.3,12-0.4,17.9-1.3c11.4-1.7,23-2.4,34.4-3.2c12.5-0.8,25-2.4,37.6-3.1
			c5.5-0.3,11.1-0.6,16.6-1.2c7.6-0.8,15.1-1.8,22.7-2.1c7-0.3,14-1.1,20.9-1.7c5.5-0.5,11.1-0.3,16.6-1.3c10.6-2,21.3-2.3,31.9-3.1
			c7.4-0.6,14.9-0.8,22.2-1.7c13.5-1.7,27.1-1.5,40.6-3.3c4.1-0.5,8.1-1.2,12.3-1.5c6.8-0.4,13.6-0.7,20.4-1.3
			c13.9-1.2,27.9-2.9,41.8-3.5c2-0.1,4.3,0.4,5.2-2.2c26.1,0,52.1,0,78.2,0c-1.8,4.4-5.4,5.9-9.8,6c-2.7,0-5.5-0.5-7.5,1.9
			c-2.2,2.7-5.6,3.5-8.4,5.1c-5.1,2.9-11.7,2.6-16,7.4c-0.2,0.3-0.8,0.4-1.2,0.4c-4.6-0.1-8.1,2.6-12,4.4c-4.1,1.9-8.1,4.4-12.5,5.3
			c-9.5,2.1-17.8,6.4-25.4,12.1c-2.8,2.1-5.4,3.5-8.9,3.2c-2.5-0.2-5.1-0.1-6.3,2.8c-0.8,1.9-2.4,2.2-4.1,2.1
			c-3.3-0.2-5.9,0.6-8.2,3.3c-1.7,2-4.1,3.5-7.2,2.1c-2.1-0.9-3.9,0.1-5.6,1.6c-4.4,3.6-10.6,4.1-14.5,8.7c-1,1.2-3.1,0.1-4.7-0.3
			c-1.4-0.4-3.5-0.7-4,0.7c-1.6,4.4-4.6,5-8.7,4.3c-1-0.2-2.5,0.6-3.3,1.4c-3.8,3.4-9.6,3.9-12.8,8.3c-0.4,0.6-1.6,1.1-2.2,0.9
			c-5.2-2-9.1,0.2-12.7,3.6c-0.1,0.1-0.4,0.2-0.6,0.2c-4-0.2-6,2.8-8.6,5.2c-3.2,3-6.8,5.6-12.1,4.6c-4.4-0.8-9.1,0-11.9,4.6
			c-0.8,1.3-1.9,2.2-3.3,2.8c-6.7,2.9-12.5,7.9-20.3,8.2c-1.5,0.1-3.1,1.1-4.6,1.8c-6.6,3.4-13.1,6.9-20.6,10.8
			c5,0.3,8.4,2.2,11.4,4.9c1.6,1.4,3.5,0.7,4.8-1.1c3-4.1,7.1-3.9,11.1-2c2.1,1,3.7,1.3,5.7,0c2.6-1.7,5.6-1.6,8.4-0.5
			c2.1,0.8,3.8,2.3,6.3,0.6c2.3-1.6,3-3.6,3.2-6.2c0.2-3.1,2.3-4.7,5.4-4.9c2.1-0.1,4.2-0.3,6,1c1.7,1.2,3.2,1.3,5.2,0.3
			c4.2-2.3,8.3-2.1,11.8,1.6c2.1,2.3,4.4,2.4,6.4,0c2.3-2.7,5.2-3.2,8.4-3c2.5,0.2,5-0.1,6.8-2.2c2.1-2.5,4.8-2.9,7.8-2.7
			c2.8,0.2,5.1-0.4,7.4-2.4c4.3-3.7,7.9-3.6,12.6,0.2c1.9,1.6,3.8,2.3,6.2,2.2c2.7-0.1,5.4-0.1,8.1,0c3.2,0.1,6.2-0.3,8.4-3
			c1.1-1.3,2.6-2,4.4-2c3.2,0.1,4.2-1.4,4.5-4.5c0.5-4.2,2-5.3,6.1-5.5c3.3-0.2,6.6,0,9.9-0.1c2.9-0.1,5.3,0.5,7,3
			c1.7,2.4,4.1,2.6,5.8,0.7c3.2-3.6,7.1-3.8,11.3-3.6c4.2,0.2,8.1,0.1,11.3-3.5c2.2-2.4,7.1-2.1,9.8-0.1c5.4,4,10.8,6.9,17.8,3.8
			c1.9-0.9,4.5-0.6,6.6,0.7c2.3,1.5,3.2,0.7,3.8-1.7c0.9-3.4,3.5-4.2,6.7-4.2c2.7,0,4.7,0.9,6.4,3c2.6,3.3,5.2,5.3,10,2.7
			c2.7-1.5,6.2-1.8,8.6-4.4c1.2-1.3,3-1.3,4.7-1.3c4,0.1,7.9,0.3,10.4-3.8c0.4-0.6,1.4-1,2.2-1c3.5,0.1,5.7-2.1,7.9-4.3
			c2.8-2.7,5.7-5.4,8.3-8.3c1.7-1.9,3.6-2.4,6-2.6c5.1-0.5,6.6,3.1,7.8,6.9c6.3-2.3,15.9-2.6,22.1-0.5c1.9,0.6,2.4,0.2,3.2-1.4
			c2.9-6,8.4-6.7,13.2-1.8c1.9,1.9,3.8,3.8,5.9,5.4c3.1,2.4,8.3,2.1,10.8-0.4c3.1-3.1,4.9-3.8,8.3-1.1c4.2,3.4,8.9,5.8,13.2,9
			c5.2,3.8,9.1,9.1,14.3,12.8c10.7,7.6,20,16.5,29.2,25.7c4.8,4.8,10,9.3,15.3,13.5c4.6,3.7,5,3.4,9.3-0.7c6.2-6,12-12.5,18-18.7
			c10.2-10.6,20.9-20.9,31.3-31.4c12.2-12.3,23.4-25.6,36-37.6c14.5-13.8,27.8-28.8,41.8-43.1c1.6-1.7,3.2-3.3,2.9-5.9
			c1-0.2,2-0.4,2.5-1.4c104.7,0,209.4,0,314.1,0c5.4,2.1,10.8,2.1,16.1,0c12.4,0,24.8,0,37.2,0c2.5,1.9,5,1.9,7.4,0
			c0.8,0,1.7,0,2.5,0c1.6,1.8,3.8,1.3,5.8,1.3c6.3,0,12.7,0,19,0c0,24,0,48,0,72c-1.8,0.1-2.9,1.3-3.9,2.7c-1.8,2.5-3.5,5.2-5.7,7.3
			c-7.8,7.7-14,16.8-21.1,25.1c-5.2,6.1-10.4,12.3-15.4,18.6c-4.8,6-9.1,12.2-14,18.1c-11.4,13.6-21.9,27.9-33.7,41.1
			c-3.8,4.3-7.2,9-10.9,13.5c-7.3,8.9-14.9,17.7-22.1,26.7c-6.5,8-12.4,16.5-19.1,24.3c-11.9,13.7-23.1,27.9-34.5,42.1
			c-10.7,13.3-21.6,26.6-32.4,39.8c-8.7,10.7-17.4,21.5-26.1,32.2c-5.6,6.9-11,13.9-16.9,20.5c-5.4,6-10.1,12.6-15.2,18.7
			c-5.4,6.5-10.5,13.3-15.8,19.8c-7.1,8.8-14.4,17.5-21.6,26.3c-5.2,6.4-9.9,13.2-15.4,19.3c-12.8,14.3-24.1,29.8-36.3,44.6
			c-7.9,9.6-15.3,19.5-23.4,28.8c-7.2,8.2-13.9,16.9-20.8,25.3c-12.9,15.6-25.2,31.6-38,47.2c-13.9,17.1-28.3,33.9-42,51.1
			c-13.9,17.4-27.8,34.8-42,51.9c-13,15.7-25.4,32-38.3,47.7c-3.8,4.6-7.2,9.6-11.2,14c-9.8,10.6-18,22.5-27.5,33.4
			c-5.8,6.7-10.8,14.1-16.7,20.7c-10.5,11.7-19.3,24.7-29.6,36.5c-10.3,11.8-19.5,24.5-29.7,36.4c-11.7,13.6-22.4,28.1-33.8,41.9
			c-11.7,14.1-22.7,28.8-34.7,42.7c-10.6,12.4-20.6,25.2-30.9,37.9c-8,9.9-16.3,19.7-24.2,29.7c-8.2,10.6-16.9,20.8-25.3,31.2
			c-9.1,11.2-18.1,22.5-27.2,33.7c-8.3,10.3-16.7,20.4-24.9,30.8c-9.1,11.4-18.4,22.8-27.8,34c-8.8,10.4-17,21.3-25.7,31.7
			c-11.8,14.1-22.8,28.7-34.8,42.7c-13.7,16-26.2,32.9-39.7,49c-13.5,16.1-26.2,33-39.7,49c-11.9,14-22.7,28.9-34.7,42.8
			c-10,11.5-18.8,24-28.8,35.6c-12.2,14.3-23.6,29.2-35.6,43.6c-14.1,17-27.7,34.3-41.7,51.4c-3,3.6-6.5,7-7.7,11.8
			c-24.4,0-48.8,0-73.2,0c0.2-1.7,1-3.1,1.8-4.6c2.8-5,5.5-10.1,8.3-15.1c4.5-7.9,8.1-16.2,12.3-24.3c7.8-15,16-29.8,23.8-44.9
			c6.6-12.6,12.8-25.4,19.3-38.1c7.9-15.2,16.3-30.1,23.9-45.4c6.5-13.1,13.7-25.9,20.5-38.8c9.4-17.8,18.8-35.7,28-53.6
			c8.7-16.9,17.2-33.9,26.1-50.7c6.9-13.2,13.4-26.6,20.7-39.5c12.7-22.3,22.4-46,35-68.4c0.9-2,2.3-3.9,2.5-6.2
			c3.9-6.3,7.8-12.6,11-19.3c0.2-0.5,0.1-1.2,0.2-1.8c0.7-1,1.5-2,2.1-3c6.6-11.6,12.2-23.8,18.7-35.5c7.4-13.3,14.2-27,21.2-40.6
			c5.4-10.5,10.4-21.2,16.1-31.4c8.5-15.4,16.8-30.8,24.8-46.4c11.6-22.4,23.5-44.5,34.8-67c10.6-21,22-41.6,32.9-62.5
			c5.8-11.2,11.2-22.6,17.1-33.7c5.5-10.4,11.9-20.3,16.9-31c8.9-19.1,19.2-37.4,28.8-56.1c7.9-15.4,15.9-30.8,24.3-46
			c8-14.4,15.2-29.3,22.7-43.9c15.2-29.3,30.2-58.8,45.7-88c10.6-19.8,20.7-39.9,31-59.9c9.3-18,18.6-35.9,28.1-53.7
			c11.4-21.3,22.2-42.9,33.5-64.2c3.9-7.3,6.8-15.1,11-22.2c7.7-13.2,14.2-27.1,21.5-40.5c9.6-17.5,18.3-35.5,27.6-53.2
			c6.6-12.6,13.1-25.3,19.3-38.1c2.6-5.3,4.9-11,8.5-15.7c3.7-4.9,5.3-10.7,8.5-15.8c1.6-2.6,0.8-3.4-2.5-3.7c-3.8-0.4-7.3,1-11,1.3
			c-8.2,0.7-16.4,1.9-24.5,2.9c-10.8,1.4-21.6,3.4-32.5,4.3c-11.5,1-22.8,3.3-34.3,4.4c-8.6,0.8-17.2,2.1-25.7,3.2
			c-8.4,1.1-16.7,2.2-25.1,3.3c-10.2,1.4-20.4,3.1-30.6,4c-11.7,1-23.3,3.1-35,4.3c-8.8,0.9-17.6,2.2-26.3,3.3
			c-8.2,1.1-16.3,2.1-24.5,3.2c-8,1-15.9,2.4-23.9,2.9c-11.8,0.7-23.3,3.2-34.9,4.4c-11.5,1.2-22.9,2.9-34.3,4.4
			c-11.2,1.4-22.5,2.8-33.7,4.2c-11.4,1.5-22.8,3.2-34.3,4.4c-11.5,1.3-22.8,3.1-34.4,4.2c-11.1,1-22,3.1-33,4.5
			c-14.9,1.9-29.9,3.4-44.8,5.3c-18,2.3-35.9,4.8-53.9,7.2c-10,1.3-20,2.4-30,3.8c-9.8,1.4-19.6,2.9-29.4,3.8
			c-7.4,0.7-14.7,1.9-22.1,2.8c-11.8,1.5-23.7,3-35.5,4.5c-8.4,1.1-16.8,2-25.1,3.3c-12.2,1.8-24.5,3.3-36.8,4.2
			c-1.3-0.1-2.3-0.8-3.3-1.5c-8.2-6.2-16.5-12.4-24.8-18.5c-13-9.4-26.1-18.7-39.2-28.1c-21.1-15.2-42.2-30.4-63.2-45.7
			c-5.7-4.1-11.2-8.4-17-12.4c-7.3-5-14.1-10.7-21.3-16c-12.9-9.5-26.5-18.2-39.3-28c-9.6-7.5-19.8-14.2-29.7-21.2
			c-2.1-1.5-4.1-2.9-6.8-1.2c-0.4-0.5-0.9-0.5-1.3,0l0.1,0c-0.8,0-1.7,0-2.5,0c-1.3-1.4-2.9-1.3-4.6-0.8c-2.8,0.9-5.4,2-8.4,2
			c-10.2-0.1-19.5,4.5-29.4,5.7c-0.4,0-0.8,0.3-1.1,0.5c-4,1.9-8.2,2.7-12.6,2.5c-4.8-0.2-9.4,0.6-13.7,3c-2.3,1.3-5,2.1-7.7,1.9
			c-13.2-1-25.2,5.3-38.1,6.3c-0.8,0.1-1.6,0.4-2.3,0.9c-3.6,2.3-7.6,3.1-11.9,2.8c-4.9-0.4-9.4,0.8-13.8,2.9
			c-3.2,1.5-6.6,2.4-10.2,2.1c-4-0.3-7.8,0.5-11.5,1.9c-5,1.9-10.1,3.6-15.7,3.1c-1.9-0.2-3.9,0.2-5.3,1.4c-5.2,4.3-11,3.9-17.1,3.1
			c-4.3-0.6-9-0.5-12.5,2c-4.8,3.4-9.9,3.6-15.3,3.5c-3.1,0-6.5-0.9-9.1,1.1c-5.2,4.1-11.1,4-17.1,3.8c-3.3-0.1-6.7-0.2-9.5,2.1
			c-2.9,2.3-6.2,3.1-9.8,2.9c-2-0.1-4.4-0.4-5.7,1.7c-1.9,3.2-4.9,3.3-8.1,3.3c-2.7-0.1-5.4,0-8.1,0c-1.7,0-3.6,0-4.4,1.7
			c-1.7,3.6-4.8,3.3-8,3.3c-3.1,0-6.2-0.6-9.2,0.6c-1.8,0.7-2.9,2-1,3.7c2.7,2.4,4.4,6.2,9,5.7c1.3-0.1,2.6,0.5,2.7,2
			c0.2,3.1-3,4.2-4.4,6.4c-1.3,1.9-2.9,0.5-4.2-0.6c-1.1-1-2.7-2.2-3.8-1c-2.1,2.4-6,3.3-6,7.4c0,0.8-0.2,1.7-0.5,2.4
			c-0.4,1.2-0.9,2.5-2.5,2.3c-1.1-0.1-1.6-1.2-1.8-2.2c-0.2-1.2-0.4-2.5-0.7-3.6c-0.3-1-1.3-1.7-2.4-1.6c-1.2,0.1-1.8,0.9-1.9,2.1
			c-0.2,2.1-0.8,4-1.9,5.8c-2.8,4.5-2.8,4.5,2.1,5.4c0.6,0.1,1.2,0.2,1.8,0.4c0.8,0.3,1.3,1,1.3,1.9c0,1.2-0.5,2-1.6,2.3
			c-1,0.2-2.4,0.6-3,0.1c-4.3-3.7-8.1-2.2-12.9-0.2c-5.3,2.3-5.7,1.4-5.8,7c0,2.1,0,4.1,0,6.2c0,2.9-0.2,5.9,3.3,7.3
			c1.3,0.5,1.6,1.8,1.6,3.1c-0.1,3.2,0,6.2,4,7.3c0.4,0.1,0.9,1,0.9,1.5c-0.3,3.8,1.2,6.6,3.9,9.3c1.5,1.5,0.6,3-1.7,3.2
			c-2.8,0.3-5.3,0-7.4-2.2c-1.3-1.3-2.6-1.5-4.4-0.3c-3.7,2.6-4,2.5-5.1-2.2c-0.6-2.7-1.9-4.3-4.6-5.1c-5.2-1.4-5.1-1.5-5.3-6.5
			c0-1.2,0.1-2.5-0.1-3.7c-0.4-3.5-2.1-4.3-4.8-2c-1.7,1.4-3.4,2.3-5.5,2.2c-3.7-0.3-4.7,1.8-4.4,5c-3.2,0.1-6.9-0.8-9.3,2
			c-2.3,2.8-4.1,2.8-6.5,0.4c-1.1-1.1-2.7-1.5-3.8-0.1c-1.3,1.7-3.7,2.9-3.4,5.5c0.1,0.8,0.9,1.6,1.7,1.6c5.6,0.1,11.5,2.4,16.2-2.6
			c1.4-1.5,3.1-2,5-1.9c0,2.3,0,4.5-0.1,6.8c-0.1,1.6-0.8,2.7-2.5,3c-2,0.3-4.4-0.2-5.4,2.1c-1.1,2.5,1.6,3.5,2.4,5.3
			c0.9,2.3,0.9,4.6-0.9,6.3c-1.8,1.7-2.9-0.5-4.2-1.3c-1.6-1-3.8-1.5-3.8,0.8c0.1,4.4-2.2,6.4-5.4,8.6c-1.6,1.1-2.5,3.3-4.9,3.1
			c-0.3-1.3,0.1-3-1.8-3.3c-0.7-0.1-1.2,0.3-1.2,1c0.1,1.9,1.6,2,3,2.3c-0.3,2.1-1.5,3.7-2.9,5.2c-3.3,3.6-3,6.5,1.2,9.8
			c1.3,1.1,1.1,2,0.5,3.1c-0.8,1.5-2.3,1.6-3.7,1.6c-0.2-1.3,0.2-3-1.8-3.3c-0.7-0.1-1.2,0.3-1.2,1c0.1,1.9,1.6,2,3,2.3
			c0,3.9,2.7,4.8,5.8,4.9c2.3,0.1,4.1,0.7,4.1,3.5c0,2.6-0.2,5.1-3,6.2c-8.4,3.3-16.4-2.2-16.8-11.3c-0.1-1.6,0.2-3.3-0.5-4.9
			c-0.5-1-1.2-1.7-2.4-1.7c-1.3,0-1.8,0.9-1.9,2c-0.1,1.2-0.1,2.5-0.1,3.7c0,2.3,0.1,4.8-1.7,6.4c-2.3,2.1-3.6,4.4-3.3,7.6
			c0.1,1-0.2,2.7-1.1,2.7c-5.2,0-9,2.7-12.9,5.6c-0.7,0.5-2,0.1-3,0.2c-1,0-2.1,0-3.1,0.2c-3,0.6-3.7,2.2-2,4.8c1.1,1.6,2.1,3,2.3,5
			c-4.8,0-9.5,0-14.3,0c-4.7,0-7.8,3.6-9.8,6.6c-1.7,2.6,3.5,4.3,4.9,7c0.2,0.5,1,0.7,1.5,1c1.1,0.5,2.4,0.9,1.9,2.6
			c-0.5,1.5-1.6,2.5-3.2,2.5c-2.9,0.1-5.8,0.1-8.7,0.1c-1.4,0-2.9-0.2-4.2,0.7c-1.6,1.1-1.7,3.1-0.1,3.4c3.6,0.8,6.1,3,8.8,5.1
			c1.9,1.4,4.4,0.9,6.3-0.7c0.9-0.8,1.8-1.7,2.8-2.5c1-0.8,2.6-1.3,3.3-0.1c2.5,4.7,6.8,3.9,10.9,3.9c2.1,0,4.1,0.1,6.2,0.2
			c1.1,0.1,1.8,0.9,1.9,2.1c0.1,0.9-0.3,2-1,2c-5.6,0.2-7.6,3.8-8.5,8.7c-0.1,0.8-1.4,1.4-2.2,2c-1.5,1.1-1.8,2.6-0.5,3.6
			c3.6,2.9,2.7,5.5,0,8.3c-0.6,0.7-0.8,1.9-1.2,2.8c-3.3,0-6.6,0-9.9,0.1c-4.1,0.1-5.8,3.5-7.9,6.3c-1.7,2.3,1.2,3.5,1.7,5.3
			c1.1,3.9,2.2,7.7,5.8,10.1c0.5,0.4,0.2,2,0.3,3c-3.9-0.1-7.8,0.6-11.1-2.6c-1.8-1.7-3.2-0.7-3.8,1.8c-1.6,5.6-1.7,5.6-7.4,5.8
			c-5.9,0.3-6,0.3-7.6,5.8c-0.2,0.8-0.6,1.5-0.9,2.3c-0.4,0.8-1.2,1.3-2,1c-0.5-0.2-1.1-0.7-1.3-1.2c-0.8-1.7-0.5-3.6-0.5-5.5
			c-0.3-5.9-1.5-7.1-7.5-7.3c-0.8,0-1.7,0-4.5,0c0.7,0.1,2.3,0.4,2.4-2.4c0.1-2.2,2.4-2.4,4.3-2.6c2.2-0.2,3.9-1.3,4.7-3.3
			c0.7-1.6,0.5-3.3-1-4.4c-1.3-1-2.8-0.8-3.8,0.5c-1.4,1.8-3.2,2.3-5.3,2.6c-3.7,0.4-5.2,3.7-7.1,6.2c-0.9,1.2-0.1,2.5,1.2,3
			c1.1,0.4,2.4,0.5,4.7,0.5c1.6,3.9-0.7,5.3-4.4,5c-1.4-0.1-2.9-0.1-4.3,0.2c-2.6,0.6-3.3,2.4-1.7,4.6c1.8,2.4,3.5,5.3,7.2,5.1
			c3.8-0.1,5,2.4,5.1,5.6c0.1,3.1,0.1,6.2,0.1,9.3c-3.7,0-7.4,0-11.1,0c-2.1,0-3.7,0.8-3.7,3.2c0.1,3.7-2.2,5.9-4.3,8.5
			c-1.7,2.1-4.8,3.1-5.3,5.8c-0.6,3.6-1.6,6.8-4.2,9.4c-0.8,0.8-0.6,1.8,0.1,2.7c4.3,5.5,8,6.3,14.3,2.6c1.8-1.1,2.6-0.6,3.1,1.2
			c-3.6,3.6-7.7,6.6-12.4,8.7c-1.5-1.5-3.1-1.6-4.8-0.4c-1.2,0.8-1.1,1.9-0.1,2.9c-0.2,1.8-1.3,2.9-2.7,3.8
			c-5.8,3.7-11.5,7.4-17.2,11.1c-0.2-1.7-1-3.1-2.5-4.1c-2.7-1.7-7.4-1.2-8.2,1.3c-1.3,4.7-4.8,8.7-4.3,13.9
			c-23.2,16.6-46.3,33.1-69.5,49.7c-5.7-1.1-6.8-0.2-7.5,6.2c-8.1,4.1-14.9,9.9-22.3,14.9c-1.8,0-3.4,0.3-3.7,2.5
			c-1.1,2.2-3.3,3.3-5.2,4.2c-4.1,1.7-7.4,4.5-10.9,7c-1.8,0-3.4,0.2-3.7,2.5l0,0c-3.9,0.3-7.5,1.1-7.5,6.2c-1,0.1-1.9,0.4-2.5,1.3
			c-5.3,0.4-5.3,0.4-6.2,5c-4.1,3.8-9,6.4-13.5,9.6c-7.6,5.4-15.2,11.1-23,16.2c-6.2,4.1-11.6,9.1-18.1,12.7c-1.8,0-3.4,0.2-3.7,2.5
			c-2.4,3.4-6.6,4.1-9.5,6.7c-12,10.3-25.9,18.1-38.3,28C74,665,66,670.2,58.1,675.5c-6.2,4.1-12.3,8.3-18.1,12.8
			c-3.3,2.5-6.5,5.1-10.2,7c-2.7-0.1-4.7,0.6-5,3.7c-1.1,2.2-3.3,3.1-5.2,4.2c-4.3,2.4-8.3,5.2-12.2,8.2c-1.8,0-3.4,0.2-3.7,2.4
			c-0.8,0-1.7,0-2.5,0c0-89.4,0-178.8,0-268.1c4.4-2.3,7.8-6,11.3-9.5c13.9-13.8,27.8-27.7,41.7-41.6c2.6-2.6,5.4-5,8.4-7.2
			c3.9-2.7,7.3-6,10.5-9.5c7.4-7.9,14.7-15.9,23.5-22.3c1.4-1,2.4-2.3,3-3.8c0.9-2.2,2.6-3.6,4.5-5c2.1-1.6,3.9-3.7,6-5.3
			c6.3-4.8,9.3-13.2,17.5-15.9c0.3-0.1,0.6-0.6,0.9-0.8c8-7.4,15.2-15.6,23.2-22.9c17.7-16.3,33.4-34.8,52-50.3
			c13.2-11,24.4-24,36.8-35.8c4.2-4,7.7-8.6,12.7-11.7c1.9-1.2,2.6-3.1,2.5-5.4c1.7-2,4-2.8,6.4-3.5c8.5-2.5,16.2-7.2,25.2-8.2
			c0.4,0,0.8-0.3,1.1-0.6c2.9-2.4,6.4-2.4,10-2.7c7.7-0.5,16-0.3,20.3-8.8c0.3-0.5,0.8-0.9,1.3-1.3c2.9-2.6,3.5-2.5,6,0.3
			c3.9,4.3,6.9,5.2,11.8,2.3c2.8-1.7,5.6-2.5,8.8-2.3c2.1,0.1,4.2-0.1,5.3-2.3c1.5-2.9,4.1-3.9,7.2-3.9c2.3,0,3.5-0.9,2.9-3.5
			c-0.8-3.7,1.4-5.6,4.5-6.1c2.8-0.5,5.1-1.3,6.9-3.5c1.1-1.3,2.8-1.7,4.5-1.7c3.1,0,4.7-0.8,3.8-4.4c-0.5-2.1,0.7-4.1,2.8-5
			c2.3-1,4.5-0.6,6.3,1.2c0.9,0.9,1.6,2,2.6,2.6c1.6,1.1,3.9,0,3.4-1.8c-1.1-3.8,2.5-7.1,0.8-10.9c-0.3-0.7,0.4-2.4,1.1-2.7
			c5.5-2.4,10.4-6.1,16.3-7.5c0.5-0.1,1.2,0.1,1.8,0.4c3.3,1.3,6.3,0.3,8.5-2c3.7-3.9,8.9-5.9,12.5-9.9c0.8-0.9,2-1.8,3.1-2
			c6.9-1,13.4-4,20.6-3.1c1.9,0.2,3.2-0.5,3.9-2.3c2.6-6.4,7.2-10.2,14.1-11.4c1.6-0.3,3.2-1.1,4.2-2.5c1.2-1.6,2.9-2.3,4.7-2.8
			c5.2-1.3,9.4-4.9,14.9-5.5c1.3-0.1,2.1-1.4,3.1-1.9c5.1-2.6,9.2-6.7,14.9-8.5c3.6-1.1,7.8-1.8,10.7-4.5c2.8-2.6,6.3-3.4,9.7-3.5
			c6.8-0.1,11.7-3,15.8-8c1.3-1.6,3.2-1.7,4.9-2.4c3.2-1.3,7,0.1,9.6-1.8c2.8-2,5.9-2.8,9.1-3.6c1.4-0.3,2.7-0.9,3.8-2
			c3.1-3,6.5-5.7,9.5-8.8c2.3-2.4,4.9-3.7,8-4.5c6.2-1.5,12.4-2.9,17.1-7.9c1.3-1.4,3.3-1.6,5-2.4c6.3-3.1,13.3-3.8,19.6-7.4
			c4.4-2.5,8.7-5.8,13.6-7.2c3.7-1.1,4.6-3,4.3-6.3c2.7,0,5.4-0.1,8.1-0.1c56.8,0,113.7,0,170.5,0c2.6,0,5.4,0.9,7.7-1.3
			c2.5,0,5,0,7.4,0c5.8,2.1,11.6,2.1,17.4,0c0.8,0,1.7,0,2.5,0C881,3.3,886.8,3.3,892.6,1.2z M345.1,458.1c-0.2-1.4,0.2-3-1.8-3.3
			c-0.7-0.1-1.2,0.3-1.2,1C342.2,457.6,343.7,457.8,345.1,458.1c0.1,1.7,0.2,3.5,2.5,3.5c2.3,0,2.4-1.8,2.5-3.5c2-0.2,3.8-1.2,4.3-3
			c0.8-3.2,1.6-6.3,3.8-8.8c0.7-0.8,0.4-2.1-0.6-2.7c-1.8-1.2-3.1-3.8-5.5-3.6c-3,0.3-1.7,3.3-2.4,5c-0.8,2-0.4,11.5,0.4,13.2
			C348.4,458.1,346.8,458.1,345.1,458.1z M464.2,267C464.2,267,464.3,267,464.2,267c0-0.6,0-1.2,0-1.9c0-2.6-0.2-5.2-3.5-5.6
			c-2.4-0.3-5.1-0.9-6.7,1.9c-1.6,2.7-0.9,5.2,1.1,7.4c1,1.1,2.1,2,3,3.1c0.9,1.2,1.9,2.3,3.6,1.9c2-0.5,2.4-2.1,2.5-3.8
			C464.3,269.1,464.2,268.1,464.2,267z M368.7,373.4c0,1.9,0.1,3.9,2.1,4.7c3.8,1.5,4.6-2.6,6.9-4c1.3-0.8,2.3-1.8,1.5-3.6
			c-0.1-0.2-0.2-0.4-0.3-0.5c-2.3-2.1-5-1.6-7.6-1C369.2,369.5,368.8,371.5,368.7,373.4z M447.9,281.2c-1.2-2.7-4-4.2-6.3-6.1
			c-1.6-1.2-3.5-0.8-5.1,0.6c-0.8,0.7-1.5,1.5-1.2,2.6c0.7,2.6,7.6,6.5,10.1,5.7C446.6,283.7,447.5,282.9,447.9,281.2z M359.8,398.5
			c1.5-0.2,3.5,0.5,4.4-1.2c1.2-2.1-0.9-3.3-2-4.6c-0.4-0.5-0.8-0.9-1.3-1.3c-1.6-1.5-3.2-3.8-5.7-1.8c-2.1,1.6-1.7,4.1-1.1,6.3
			C355,398.6,357.5,398.4,359.8,398.5z M402.2,314.2c-2.3-0.1-4,1.8-2.9,3.4c1.5,2.1,3.2,4.2,5.3,5.8c1.9,1.5,4.6,0.2,4.8-1.7
			C409.5,319.6,404.4,314.3,402.2,314.2z M478,239.6c0,3,1.2,4.8,3.4,4.8c2.6,0,3.4-1.9,3.7-4c0.3-2.6-1.7-5.5-3.6-5.5
			C479.2,234.8,478,236.5,478,239.6z M357.4,423.5c-2.2-0.1-3.6,1.6-3.6,4.6c0,2.4,0.4,4.6,3.3,4.8c2.6,0.2,3.5-1.8,3.7-3.9
			C361.2,426.5,359.3,423.6,357.4,423.5z M389.8,364.1c0.1,1.7,0.2,3.6,2.5,4.1c2,0.4,2.2-1.4,2.9-2.6c0.4-0.7,0.9-1.3,1.4-2
			c0.7-1,1.8-1.9,0.7-3.2c-0.8-1-2-1.5-3.3-1.5C391.5,359,389.8,360.9,389.8,364.1z M310.3,468.7c0-3.5-1-5.4-2.9-5.3
			c-2.7,0.1-3.1,2.1-3.2,4.2c-0.1,3.3,1.3,5.3,3.7,5.1C310.5,472.4,310.2,470.4,310.3,468.7z M579.4,136.9c-0.2-1.6-1.2-2.6-2.8-2.5
			c-2,0.1-3.6,1.3-3.6,3.3c-0.1,2.1,1.8,2.5,3.5,2.4C578.2,139.9,579.4,138.9,579.4,136.9z M385.5,406c-0.3-1.8-1.5-2.3-3.1-2.4
			c-1.8,0-3.4,0.7-3.4,2.7c-0.1,2,1.6,2.8,3.3,2.8C384.1,409,385.2,407.7,385.5,406z M537.8,194.9c1.4-0.3,3.8,0.2,3.9-2.3
			c0.1-1.7-1.7-2.2-3.1-2.3c-2.1-0.2-3.7,1-3.9,3C534.5,194.9,536.2,194.8,537.8,194.9z M535.8,180.2c-1.5,0.2-2.8,1-2.9,2.6
			c0,2,1.5,2.8,3.2,2.8c1.8,0,2.3-1.4,2.4-2.9C538.6,180.9,537.5,180.2,535.8,180.2z M394.6,341.9c0.1-1.7-0.6-2.8-2.4-2.8
			c-1.6,0-2.9,0.6-3.2,2.2c-0.4,2.1,1.2,2.9,2.8,3.2C393.6,344.8,394.3,343.5,394.6,341.9z M357.4,413.6c-1.8,0.1-3.2,0.9-3.2,2.9
			c0,1.7,1.5,2.4,2.9,2.6c1.7,0.2,2.5-1,2.7-2.6C359.9,414.7,359.2,413.7,357.4,413.6z M540.6,200.1c-1.3,0.3-2.6,0.9-2.7,2.6
			c0,2,1.5,2.8,3.2,2.8c1.8,0,2.3-1.4,2.4-2.9C543.5,200.7,542.5,200,540.6,200.1z M486.3,205c-1.7,0.2-3.1,1-3,3
			c0.1,1.7,1.6,2.3,3,2.4c1.8,0.1,2.5-1.2,2.6-2.8C489,206,488.1,205.1,486.3,205z M394.6,351.1c-0.3-1.5-1.3-2.2-3-2
			c-1.6,0.2-2.8,1.1-2.7,2.8c0.1,1.9,1.7,2.8,3.5,2.6C394.1,354.2,394.5,352.8,394.6,351.1z M436.8,354.5c1.8-0.2,2.4-1.4,2.5-2.9
			c0-1.7-1-2.6-2.7-2.5c-1.5,0.1-2.8,0.8-2.9,2.5C433.5,353.6,435.1,354.2,436.8,354.5z M377.1,358.9c-1.7,0.2-3.1,1-3,3
			c0.1,1.7,1.6,2.3,3,2.4c1.8,0.1,2.5-1.2,2.6-2.8C379.8,359.9,378.9,359,377.1,358.9z M365.6,375.8c-0.5-1.5-1.7-2.1-3.3-2
			c-1.8,0.1-3.4,1-3.1,3c0.2,1.9,2,1.8,3.4,1.7C364.2,378.4,365.5,377.8,365.6,375.8z M486.1,219.6c1.6-0.1,2.8-0.6,2.8-2.5
			c0-1.5-1-2.2-2.4-2.2c-1.9,0-3.2,0.9-3.1,2.9C483.4,219.4,484.8,219.6,486.1,219.6z M419.4,356.1c-0.2-0.9-0.6-2-2.1-2
			c-1.8-0.1-3.3,0.6-3.4,2.6c-0.1,1.6,1.1,2,2.4,2C417.8,358.7,419.1,358.3,419.4,356.1z M325,401c-0.1-1.6-0.9-2.3-2.4-2.3
			c-1.9,0-3.2,0.9-3.1,2.9c0.1,1.5,1.4,1.8,2.7,1.8C323.8,403.3,325,402.7,325,401z M342.1,438.1c1.6-0.1,2.8-0.6,2.8-2.5
			c0-1.5-1-2.2-2.4-2.2c-1.9,0-3.2,0.9-3.1,2.9C339.4,437.9,340.8,438.1,342.1,438.1z M369.7,351.3c-0.1-1.6-1-2.3-2.4-2.3
			c-1.9,0-3.2,0.9-3.1,2.9c0.1,1.5,1.5,1.8,2.7,1.8C368.5,353.7,369.6,353,369.7,351.3z M401.8,299.4c-1.5,0.3-2.8,0.9-2.8,2.6
			c0,2,1.5,2.1,3,2c1.7-0.1,2.7-1,2.5-2.7C404.2,299.8,403.1,299.4,401.8,299.4z M327.1,433.2c1.2-0.1,2.7-0.3,2.8-2.2
			c0.1-1.4-0.6-2.3-2-2.4c-1.8-0.1-3.3,0.5-3.4,2.6C324.3,432.7,325.6,433,327.1,433.2z M410.2,135.6c-0.1-1-0.8-1.3-1.7-1.1
			c-1.1,0.1-1.9,0.7-1.9,1.9c0,1,0.8,1.3,1.6,1.1C409.4,137.3,410.1,136.7,410.2,135.6z M411.7,381.9c0.9-0.1,1.3-0.8,1.2-1.7
			c-0.1-0.6-0.5-1.1-1.2-1.1c-0.9,0-1.6,0.5-1.6,1.4C410.1,381.4,410.7,381.9,411.7,381.9z M416.9,375.6c-0.9,0.1-1.5,0.6-1.6,1.5
			c-0.1,0.7,0.4,1.1,1.1,1.2c0.9,0,1.5-0.5,1.6-1.4C418,376.1,417.6,375.7,416.9,375.6z M496.3,236.5c-0.9,0.1-1.5,0.6-1.6,1.5
			c-0.1,0.7,0.4,1.1,1.1,1.2c0.9,0,1.5-0.5,1.6-1.4C497.5,237.1,497,236.6,496.3,236.5z M452.6,278.4c0.2-1.7-0.3-2.1-0.9-2.1
			c-0.9,0-1.5,0.6-1.6,1.5c-0.1,0.7,0.4,1.1,1.1,1.2C452.1,279,452.6,278.4,452.6,278.4z M551.8,168.1c0.1-0.9-0.4-1.3-1.1-1.1
			c-0.5,0.1-1,0.6-1.3,1.1c-0.3,0.6,0,1.2,0.7,1.3C551.1,169.5,551.6,168.9,551.8,168.1z M555.6,164.4c0.8-0.4,1.4-0.9,1.1-1.9
			c-0.1-0.3-0.6-0.6-0.9-0.5c-0.9,0.1-1.5,0.7-1.4,1.6C554.4,164.3,554.9,164.5,555.6,164.4z M456.2,282.7c0.7-0.1,1.1-0.4,1-1.1
			c-0.1-0.3-0.5-0.6-0.8-0.7c-0.6-0.1-1.2,0.1-1.3,0.7C455.1,282.4,455.6,282.6,456.2,282.7z M546.7,171.7c-0.6,0.1-1.1,0.5-0.9,1.2
			c0.1,0.3,0.6,0.5,0.9,0.6c0.6,0.1,1.2-0.2,1.2-0.9C547.8,171.9,547.3,171.7,546.7,171.7z M566.7,152.5c-0.3-0.1-0.6-0.3-0.8-0.3
			c-0.1,0-0.3,0.3-0.3,0.4c0.1,0.3,0.4,0.5,0.6,0.7C566.3,153,566.5,152.8,566.7,152.5z M515.7,197.5c0.3,0.2,0.6,0.4,0.9,0.5
			c0.1,0,0.3-0.3,0.3-0.4c-0.1-0.3-0.3-0.5-0.5-0.8C516.2,197.1,516,197.2,515.7,197.5z M373.1,410.8c-0.3-0.2-0.6-0.4-0.9-0.5
			c-0.1,0-0.3,0.3-0.3,0.4c0.1,0.3,0.3,0.5,0.5,0.8C372.6,411.2,372.8,411,373.1,410.8z M551.1,206.6c-0.2,0.3-0.4,0.6-0.5,0.9
			c0,0.1,0.3,0.3,0.4,0.3c0.3-0.1,0.5-0.3,0.8-0.5C551.5,207.1,551.3,206.9,551.1,206.6z M407.8,376.1c-0.3-0.2-0.6-0.4-0.9-0.5
			c-0.1,0-0.3,0.3-0.3,0.4c0.1,0.3,0.3,0.5,0.5,0.8C407.4,376.5,407.6,376.3,407.8,376.1z M432.7,281.7c-0.3-0.2-0.6-0.4-0.9-0.5
			c-0.1,0-0.3,0.3-0.3,0.4c0.1,0.3,0.3,0.5,0.5,0.8C432.2,282.1,432.4,281.9,432.7,281.7z M442.5,341.2c-0.3-0.1-0.6-0.3-0.8-0.3
			c-0.1,0-0.3,0.3-0.3,0.4c0.1,0.3,0.4,0.5,0.6,0.7C442.2,341.7,442.4,341.5,442.5,341.2z M422.6,301.6c-0.2-0.2-0.5-0.4-0.7-0.5
			c-0.1,0-0.4,0.2-0.4,0.3c0.1,0.3,0.3,0.5,0.4,0.8C422.2,302,422.4,301.8,422.6,301.6z"/>
		<path class="st2" d="M1088.7,1548c-350.9,0-701.8,0-1052.7,0c0.3-2.4,2.4-3.3,4.1-4.4c7.3-4.7,14.8-8.9,21.9-13.8
			c10.7-7.4,22.1-13.6,33-20.6c10-6.4,20.3-12.5,30.5-18.7c12.8-7.7,25.5-15.8,38.3-23.6c14.5-8.9,28.9-18.1,43.3-27.1
			c10-6.2,20.1-12.1,30-18.4c10.3-6.5,20.6-12.9,31-19.1c12.2-7.2,24.1-15.1,36.2-22.4c3.3-2,5.4-4.4,6-8.1c0.4-0.4,0.8-0.9,1.2-1.3
			c0.3-0.4,0.7-0.7,1-1.1c2.2,0,3.1-1.5,4.3-3c7.7-9.2,13.7-19.5,21.4-28.8c9.2-11.1,17.3-23.1,26-34.6
			c15.8-20.9,31.2-42.1,46.7-63.2c9.7-13.1,19.3-26.2,29.1-39.3c8.7-11.5,17.8-22.7,26.2-34.5c11-15.5,22.9-30.3,33.9-45.7
			c4.3-6,9.2-11.6,13.4-17.8c7.9-11.6,17.1-22.2,24.9-33.9c7.1-10.6,15.3-20.4,23-30.6c6.8-9.1,13.5-18.2,20.3-27.3
			c4-5.3,8.2-10.4,11.9-15.8c7.2-10.3,15.2-20,22.4-30.4c2.8-4.1,5.3-8.4,8.6-12.1c7.1-8.1,12.9-17.1,19.5-25.5
			c8.3-10.5,16.1-21.5,24.1-32.1c3.2-4.3,7-8.2,9.9-12.6c8.9-13.7,19.2-26.3,28.8-39.5c10.9-14.8,22.1-29.3,33.1-44
			c9.7-13.1,18.8-26.7,29-39.4c9.7-12.1,18.2-25,28-37c8.2-10.1,15.2-21,22.9-31.5c4.7-6.5,9.8-12.8,14.6-19.2c4.4-6,8.7-12,13.2-18
			c11.9-15.8,23.8-31.7,35.7-47.5c5.8-7.7,11.6-15.5,17.4-23.2c4.1-5.4,8.2-10.9,12.2-16.4c5.9-8.2,11.4-16.7,17.8-24.5
			c12.1-14.6,23.1-30.1,34.3-45.4c15.8-21.7,32.2-42.9,48-64.5c13.8-18.8,27.8-37.4,41.7-56.1c13.1-17.5,26.3-34.9,39.4-52.5
			c15.9-21.4,32.2-42.4,47.6-64.1c3.5-4.9,7.2-10,12.1-13.9c-1.9,10.8-1.2,21.8-1.9,32.7c-1.1,16.7-1.8,33.3-2.6,50
			c-0.8,16.5-1.8,32.9-2.5,49.4c-0.7,16.7-1.3,33.4-2.6,50c-0.6,8-0.6,16.1-1,24.1c-0.7,13-2.4,25.9-1.6,39c0.1,1.6,0.1,3.3-0.2,5
			c-1.6,10.2-1.8,20.5-2.1,30.8c-0.4,12.4-2.3,24.7-1.5,37.1c0,0.4,0,0.8-0.1,1.2c-2,12.9-1.7,25.9-2.1,38.9
			c-0.4,11.8-1,23.5-1.8,35.2c-0.8,12.1-1.3,24.3-2.1,36.4c-0.5,8-0.5,16.1-1,24.1c-0.9,15.4-2,30.9-2.6,46.3
			c-0.5,14.8-2.3,29.7-1.5,44.6c0,0.8,0,1.7-0.1,2.5c-1.5,12.5-2.5,25-2.4,37.6c0,0.8,0.1,1.7-0.1,2.5c-2.4,11.6-0.6,23.5-2.2,35.2
			c-1.2,8.3-0.7,16.9-1.1,25.3c-0.6,12.8-2.4,25.5-1.6,38.3c0.2,3.5-0.1,7-1.2,10.4c0,2.5,0,5,0,7.4c0.6,9.7-1.7,19.3-1.4,29
			c0.4,12.3-1.9,24.6-1.2,37c0,0.4,0,0.8-0.1,1.2c-1.5,11.6-2.4,23.3-2.4,35.1c0,11.1-1.9,22.2-1.3,33.3c0,0.4,0,0.8-0.1,1.2
			c-1.8,10.6-1.3,21.3-1.1,32c-0.9,1-1.1,2.2-1.2,3.4c-0.8,11.7-1.9,23.4-2.2,35.1c-0.3,14-1.6,28-1.6,42.1c0,8.7-0.6,17.4-1.6,25.9
			c-1.3,10.9-0.2,21.8-1.9,32.7c-1.4,9.3-0.6,18.9-1.2,28.4c-0.9,16-1.9,32.1-2.6,48.2c-0.8,17.1-1.6,34.2-2.5,51.3
			c-0.6,13-1.8,25.9-1.7,39c0.1,8-0.4,16.1-1.3,24c-1.5,11.9-0.5,23.9-2,35.8c-1.1,8.5-0.7,17.3-1,25.9
			C1089.8,1522.8,1088.3,1535.4,1088.7,1548z"/>
		<path class="st3" d="M310.4,1371.7c-0.6,3.7-2.8,6.1-6,8.1c-12.1,7.4-24,15.2-36.2,22.4c-10.4,6.2-20.8,12.6-31,19.1
			c-9.9,6.3-20,12.2-30,18.4c-14.5,9-28.8,18.2-43.3,27.1c-12.8,7.9-25.4,15.9-38.3,23.6c-10.2,6.2-20.6,12.2-30.5,18.7
			c-10.9,7-22.3,13.3-33,20.6c-7.1,4.9-14.7,9.2-21.9,13.8c-1.7,1.1-3.8,1.9-4.1,4.4c-11.2,0-22.3,0-33.5,0
			c-0.4-0.4-0.8-0.8-1.2-1.2c0-88.6,0-177.1,0-265.7c0.8-0.2,1.7-0.3,1.7-1.2c0-1-0.9-1.1-1.7-1.2c0-30.6,0-61.2,0-91.9
			c0.8-0.2,1.7-0.3,1.7-1.2c0-1-0.9-1.1-1.7-1.2c0-156.8,0-313.7,0-470.5c0.8,0,1.7,0,2.5,0c1.8,0,3-0.9,3.7-2.4
			c3.9-3,7.9-5.8,12.2-8.2c1.9-1.1,4.1-2,5.2-4.2c2.4-0.2,3.8-1.8,5-3.7c3.7-1.9,6.9-4.4,10.2-7c5.9-4.5,12-8.7,18.1-12.8
			C66,670.2,74,665,81.3,659.1c12.4-9.9,26.3-17.7,38.3-28c3-2.5,7.1-3.3,9.5-6.7c1.7-0.1,3-1,3.7-2.5c6.5-3.5,12-8.6,18.1-12.7
			c7.8-5.2,15.4-10.8,23-16.2c4.5-3.2,9.4-5.8,13.5-9.6c2.1-1.7,4.8-2.5,6.2-5c0.6-0.8,1.5-1.1,2.5-1.3c2.6-1.9,5.9-3,7.5-6.2
			c0,0,0,0,0,0c1.7-0.1,3-1,3.7-2.5c3.5-2.5,6.8-5.3,10.9-7c2-0.8,4.1-2,5.2-4.2c1.7-0.1,3-0.9,3.7-2.5c7.4-5,14.3-10.9,22.3-14.9
			c2.5-2,5.5-3.5,7.5-6.2c23.2-16.6,46.3-33.1,69.5-49.7c5.5-3.1,10.8-6.3,14.9-11.1c5.7-3.7,11.5-7.4,17.2-11.1
			c1.4-0.9,2.5-2,2.7-3.8c2.1,0,3.9-0.5,4.9-2.5c4.7-2.1,8.8-5.1,12.4-8.7c4-2.9,8.5-5.1,12.5-8c13.6-10,27.3-19.9,41.1-29.7
			c8.7-6.2,17.8-12,26.4-18.3c17.1-12.6,34.5-24.8,51.8-37.1c3-2.2,6.2-4,9.2-6.3c16.8-13,34.6-24.6,51.7-37.2
			c12-8.8,24.2-17.2,36.2-25.8c7.9-5.6,15.6-11.4,23.5-17c15.6-11,31.4-21.9,47-33c14.5-10.2,28.9-20.6,43.3-30.9
			c9-6.5,17.9-13.2,27-19.6c13.6-9.6,27.5-18.9,40.9-28.8c4.3-3.2,8.2-6.9,12.8-9.6c7.3-4.3,14-9.4,20.8-14.3
			c6-4.4,11.6-9.3,17.9-13.2c10.1-6.5,19.5-13.8,29.5-20.4c9.4-6.2,18.6-12.8,27.8-19.4c3-2.1,6.4-3.9,8.2-7.4c0.8,0,1.7,0,2.5,0
			c0.2,2.8-0.9,5.2-2,7.7c-6,12.9-11.7,26-17.8,38.9c-9.4,20-18.2,40.3-27.6,60.3c-10.5,22.2-20.8,44.6-30.9,67
			c-11,24.5-22.1,49-33.6,73.2c-11,23.1-21.6,46.5-32.3,69.8c-11.1,24.2-22.2,48.5-33.3,72.7c-12.9,28-25.9,55.9-38.8,83.8
			c-7.9,17.1-15.8,34.1-23.6,51.2c-11.3,24.6-22.6,49.2-33.9,73.8c-7.1,15.4-14.3,30.7-21.3,46.2c-12.3,27.3-25,54.4-37.6,81.6
			c-6.3,13.7-12.8,27.3-19.1,41c-7.9,17.3-15.7,34.6-23.6,51.9c-5.7,12.4-11.5,24.7-17.2,37.1c-11.5,25-23,49.9-34.5,74.9
			c-8,17.3-16,34.5-23.9,51.8c-12,26.1-24.1,52.2-36.1,78.3c-6.2,13.5-12.9,26.8-18.8,40.5c-7.2,16.7-15.1,33.1-22.6,49.6
			c-7.1,15.6-14.4,31.1-21.6,46.7c-9.5,20.4-19,40.9-28.3,61.3c-5.9,13-11.7,26-17.5,39c-0.3,0.4-0.7,0.7-1,1.1
			C311.2,1370.8,310.8,1371.2,310.4,1371.7z"/>
		<path class="st3" d="M1277.4,1548c1.2-4.8,4.8-8.2,7.7-11.8c14-17.1,27.6-34.4,41.7-51.4c12-14.5,23.4-29.4,35.6-43.6
			c9.9-11.6,18.8-24.1,28.8-35.6c12-13.9,22.8-28.7,34.7-42.8c13.6-16.1,26.2-32.9,39.7-49c13.5-16.1,26-33,39.7-49
			c11.9-13.9,23-28.6,34.8-42.7c8.7-10.4,17-21.3,25.7-31.7c9.4-11.2,18.7-22.5,27.8-34c8.2-10.3,16.6-20.5,24.9-30.8
			c9.1-11.2,18.1-22.5,27.2-33.7c8.4-10.4,17.1-20.7,25.3-31.2c7.9-10.1,16.2-19.8,24.2-29.7c10.2-12.7,20.2-25.5,30.9-37.9
			c12-13.9,23-28.6,34.7-42.7c11.4-13.8,22.1-28.3,33.8-41.9c10.2-11.9,19.4-24.7,29.7-36.4c10.4-11.8,19.1-24.8,29.6-36.5
			c5.9-6.6,10.9-14,16.7-20.7c9.5-10.9,17.7-22.8,27.5-33.4c4-4.4,7.4-9.4,11.2-14c13-15.7,25.3-32,38.3-47.7
			c14.2-17.2,28.1-34.5,42-51.9c13.8-17.2,28.1-34,42-51.1c12.8-15.7,25.1-31.7,38-47.2c7-8.4,13.6-17.1,20.8-25.3
			c8.1-9.3,15.6-19.2,23.4-28.8c12.2-14.8,23.5-30.3,36.3-44.6c5.5-6.1,10.2-12.9,15.4-19.3c7.1-8.8,14.4-17.5,21.6-26.3
			c5.3-6.6,10.4-13.3,15.8-19.8c5.2-6.2,9.8-12.7,15.2-18.7c5.9-6.6,11.3-13.6,16.9-20.5c8.7-10.7,17.4-21.5,26.1-32.2
			c10.8-13.3,21.6-26.5,32.4-39.8c11.4-14.1,22.7-28.3,34.5-42.1c6.7-7.8,12.6-16.3,19.1-24.3c7.3-9,14.8-17.8,22.1-26.7
			c3.7-4.5,7-9.2,10.9-13.5c11.8-13.3,22.4-27.5,33.7-41.1c4.9-5.9,9.3-12.1,14-18.1c5-6.3,10.1-12.5,15.4-18.6
			c7.1-8.3,13.3-17.3,21.1-25.1c2.2-2.2,3.9-4.8,5.7-7.3c1-1.4,2.1-2.6,3.9-2.7c0,230.5,0,461,0,691.4c-4.5,1-7.2,4.6-10.7,7.1
			c-19.3,14.1-38.7,28.1-57.9,42.4c-13.4,10-27.2,19.5-40.5,29.4c-12.9,9.6-25.7,19.3-38.6,28.8c-12.6,9.3-25.1,18.8-37.9,27.9
			c-13.8,9.8-27,20.3-40.9,30c-13.3,9.3-25.9,19.8-39,29.4c-12.1,8.9-24.5,17.5-36.6,26.5c-19.5,14.6-39,29.1-58.6,43.5
			c-18.4,13.6-37.2,26.7-55.5,40.4c-13.5,10.1-27.2,20.1-40.8,30.2c-13.3,9.8-26.4,19.8-39.9,29.3c-13,9.1-25.3,19.2-38.4,28.2
			c-11.1,7.6-21.4,16.1-32.3,23.9c-11.9,8.6-23.6,17.3-35.7,25.7c-10.3,7.2-19.9,15.4-30.1,22.7c-14.3,10.2-28.1,20.9-42.4,31.1
			c-10.7,7.7-21.5,15.3-32,23.4c-14.9,11.4-30.4,22-45.3,33.4c-11.5,8.7-23.2,17.1-34.8,25.8c-21.8,16.3-44,32.1-65.8,48.4
			c-20.1,15.1-40.9,29.3-60.8,44.7c-13.9,10.7-28.2,20.8-42.3,31.2c-13.9,10.3-28.2,20.2-42,30.7c-19.9,15.1-40.3,29.5-60.5,44.2
			c-1.3,0.9-2.1,2-2.2,3.5C1367.6,1548,1322.5,1548,1277.4,1548z"/>
		<path class="st1" d="M1412.7,1548c0.1-1.6,0.9-2.6,2.2-3.5c20.2-14.7,40.6-29.1,60.5-44.2c13.8-10.5,28.1-20.3,42-30.7
			c14.1-10.5,28.5-20.5,42.3-31.2c19.9-15.4,40.7-29.6,60.8-44.7c21.8-16.3,44-32.1,65.8-48.4c11.6-8.7,23.3-17.1,34.8-25.8
			c14.9-11.3,30.4-21.9,45.3-33.4c10.5-8.1,21.2-15.7,32-23.4c14.3-10.2,28.1-20.9,42.4-31.1c10.2-7.3,19.8-15.5,30.1-22.7
			c12-8.4,23.8-17.1,35.7-25.7c10.9-7.8,21.2-16.4,32.3-23.9c13.1-9,25.4-19.1,38.4-28.2c13.5-9.5,26.6-19.5,39.9-29.3
			c13.6-10.1,27.3-20,40.8-30.2c18.3-13.7,37.1-26.9,55.5-40.4c19.6-14.4,39.2-28.9,58.6-43.5c12-9,24.5-17.6,36.6-26.5
			c13.1-9.7,25.6-20.1,39-29.4c13.9-9.7,27.2-20.2,40.9-30c12.8-9.1,25.3-18.5,37.9-27.9c12.9-9.6,25.8-19.2,38.6-28.8
			c13.4-10,27.1-19.4,40.5-29.4c19.2-14.3,38.6-28.3,57.9-42.4c3.5-2.5,6.2-6.1,10.7-7.1c0,260.7,0,521.4,0,782.1
			C2120.3,1548,1766.5,1548,1412.7,1548z"/>
		<path class="st4" d="M661.6,2.7c0.3,3.3-0.6,5.2-4.3,6.3c-4.9,1.4-9.2,4.7-13.6,7.2c-6.2,3.6-13.3,4.3-19.6,7.4
			c-1.6,0.8-3.7,1-5,2.4c-4.7,4.9-10.9,6.3-17.1,7.9c-3.1,0.8-5.7,2.1-8,4.5c-3,3.1-6.4,5.8-9.5,8.8c-1.1,1.1-2.4,1.6-3.8,2
			c-3.2,0.8-6.2,1.5-9.1,3.6c-2.7,1.9-6.5,0.5-9.6,1.8c-1.7,0.7-3.6,0.8-4.9,2.4c-4.1,5-9,7.9-15.8,8c-3.4,0-6.9,0.8-9.7,3.5
			c-2.9,2.8-7.1,3.4-10.7,4.5c-5.7,1.8-9.8,5.9-14.9,8.5c-1,0.5-1.8,1.8-3.1,1.9c-5.4,0.5-9.7,4.2-14.9,5.5
			c-1.8,0.5-3.5,1.2-4.7,2.8c-1,1.4-2.5,2.2-4.2,2.5c-6.8,1.2-11.5,5-14.1,11.4c-0.7,1.8-1.9,2.5-3.9,2.3
			c-7.1-0.9-13.7,2.1-20.6,3.1c-1.1,0.2-2.3,1.1-3.1,2c-3.6,4-8.8,6-12.5,9.9c-2.2,2.4-5.2,3.4-8.5,2c-0.6-0.2-1.3-0.5-1.8-0.4
			c-5.9,1.4-10.8,5.1-16.3,7.5c-0.7,0.3-1.4,2.1-1.1,2.7c1.6,3.8-1.9,7.1-0.8,10.9c0.5,1.7-1.8,2.8-3.4,1.8c-1-0.7-1.7-1.8-2.6-2.6
			c-1.8-1.8-4-2.2-6.3-1.2c-2.1,0.9-3.3,2.9-2.8,5c0.9,3.6-0.7,4.5-3.8,4.4c-1.7,0-3.5,0.4-4.5,1.7c-1.8,2.3-4.1,3.1-6.9,3.5
			c-3.1,0.5-5.3,2.4-4.5,6.1c0.6,2.6-0.6,3.5-2.9,3.5c-3.1,0-5.7,0.9-7.2,3.9c-1.1,2.2-3.2,2.5-5.3,2.3c-3.2-0.2-6,0.6-8.8,2.3
			c-4.9,2.9-7.9,2-11.8-2.3c-2.5-2.8-3.1-2.8-6-0.3c-0.5,0.4-1,0.8-1.3,1.3c-4.3,8.5-12.6,8.3-20.3,8.8c-3.6,0.3-7,0.3-10,2.7
			c-0.3,0.3-0.7,0.5-1.1,0.6c-9,1-16.7,5.7-25.2,8.2c-2.4,0.7-4.7,1.5-6.4,3.5c-2.6,0-5,0.7-7.1,1.9c-6.5,3.7-13.6,5.8-20.3,9
			c-13.4,6.2-27.1,11.9-40.6,17.9c-16.7,7.4-33.3,15-50.2,22.1c-5.7,2.4-11.5,4.4-17.1,7.1c-8.1,4-16.5,7.3-24.6,11.4
			c-8,4.1-16.6,6.9-24.8,10.7c-9.7,4.5-19.7,8.3-29.3,13c-7.9,3.9-16.4,6.5-24.3,10.6c-4.9,2.5-10.1,5.8-16.2,5.5
			c0-56.7,0-113.4,0-170.1c1.5-0.3,2.4-1.1,2.4-2.7c-0.1-0.3-0.1-0.6-0.1-0.9c1.9,0,3.5-0.9,5.2-1.8c6.5-3.4,12.8-7.3,19.2-10.9
			C49.7,109,71.8,97,93.7,84.7c2.3-1.3,5-2.2,5.6-5.3l0,0c1.4,0,2.8,0,3.7-1.3l0,0c0.4-0.4,0.9-0.8,1.3-1.3l0,0c3.7-0.3,7.2-1,8.7-5
			l0,0c1.8,0.1,3.5-0.2,3.8-2.4l0.5-0.1l0.5,0c1.1,0,2.1-0.3,2.7-1.2l0,0c1.9,0.1,3.5-0.2,3.8-2.5l0,0c3.1-0.1,5.8-0.9,7.5-3.8l0,0
			c1.4-0.1,2.3-0.8,2.5-2.3c8-4.4,15.9-8.8,23.9-13.1c11.5-6.1,23-12.1,34.5-18.1c5.3-0.1,9.8-2.7,14.8-3.9
			c15.3-3.8,30.7-7.4,45.9-11.6c10.1-2.8,20.2-5.6,30.3-8.1c1.1-0.3,1.8-1,2.2-2c3.5-0.1,7-0.3,10.5-0.3c91.2,0,182.4,0,273.7,0
			C600.4,2.6,631,2.6,661.6,2.7z"/>
		<path class="st3" d="M1088.7,1548c-0.4-12.6,1.1-25.2,1.6-37.7c0.4-8.6-0.1-17.4,1-25.9c1.6-11.9,0.5-23.9,2-35.8
			c1-7.9,1.4-16.1,1.3-24c-0.1-13,1-26,1.7-39c0.9-17.1,1.7-34.2,2.5-51.3c0.7-16.1,1.7-32.1,2.6-48.2c0.5-9.5-0.2-19.1,1.2-28.4
			c1.6-10.9,0.6-21.8,1.9-32.7c1-8.5,1.6-17.2,1.6-25.9c0-14,1.3-28,1.6-42.1c0.3-11.7,1.4-23.4,2.2-35.1c0.1-1.3,0.3-2.5,1.2-3.4
			c3.2-0.4,5.4,0.9,5.7,4.2c0.4,4.2,1.4,8.1,4.7,11c0.5,0.5,0.6,1.5,0.7,2.3c1.2,5.6,5.5,9.3,11,9.7c1.8,0.1,2.9-0.5,4.1-2
			c3.5-4.4,9.3-4.8,13.4-0.9c1.7,1.6,3.2,2.8,5.7,3.1c4.6,0.6,5.9,2.7,5.3,7.2c-0.2,1.2-0.7,2.4-0.6,3.6c0.2,1.8,1.5,3,3.1,3.5
			c1.5,0.4,2.3-0.5,2.8-1.8c0.9-2.3,2.9-2.7,5.1-2.7c2.2,0,4-0.2,5.1-2.6c1.1-2.6,3.5-2.7,5.9-2c2.2,0.6,3.4,2.3,3.6,4.6
			c0.2,1.6,0.1,3.3,0.1,5c0.1,1.7,0.3,3.6,2.5,3.5c2.3-0.1,3.1-1.8,3.1-3.9c-0.1-1.6-0.6-3.3-0.6-4.9c0.1-3.8,3.2-6.1,6.2-4
			c4,2.8,8.9,3.4,12.5,6.5c2,1.7,4.4,2.3,6.8,2.7c1.4,0.3,2.7-0.1,3.9-1.3c4.4-4.8,10.3-5.9,16-3.4c2,0.9,3.8,2.1,3.9,4.4
			c0.2,3.7,2.4,4.4,5.4,4.2c2.5-0.1,5,0,7.4,0c5-0.1,9.4,1,12.8,5c1.6,1.9,3.5,2.7,6,1.7c3-1.2,5.5,0,7.8,2.1
			c2.8,2.6,3.3,2.3,4.6-1.1c0.4-1.2,0.7-2.4,1-3.6c0.4-1.6,1.4-2.5,3-2.7c5.5-0.6,8,6.3,13.7,5.6c1.4-0.2,2.5,2,2.8,3.7
			c0.1,0.4,0.1,0.8,0.2,1.2c0.9,2.7,3.3,3.6,7.1,2.8c3-0.6,2.9-2.5,2.3-4.7c-0.6-1.9,0.2-3.7,0.7-5.5c0.8-3,3.4-4.2,6.2-3.1
			c2.1,0.8,3.3,2.4,3.5,4.7c0.2,1.4,0,3.2,2.1,3.1c1.5,0,2-1.4,2.4-2.5c0.8-2.3,0.7-5,4-5.6c2.4-0.4,4.8-1.1,7.3,0
			c1.5,0.7,3,1.1,4.8,0.8c6-1.1,12.3,0.5,18.2-1.9c1.7-0.7,3.7,0,5.4,0.7c4.6,2,7.9,1.3,11.3-2.9c3.8-4.9,8.5-9.1,15.8-6.8
			c1,0.3,2.2,0,2.8-1c2.8-4.9,7.7-7.9,11.2-12.1c2-2.4,3.1-4.6,3.1-7.7c0-7.8,1.7-9.4,9.8-10.1c-12.5,22.3-22.2,46.1-35,68.4
			c-7.4,12.9-13.8,26.3-20.7,39.5c-8.9,16.8-17.3,33.8-26.1,50.7c-9.3,17.9-18.7,35.8-28,53.6c-6.8,13-14,25.7-20.5,38.8
			c-7.6,15.3-16,30.2-23.9,45.4c-6.5,12.6-12.7,25.4-19.3,38.1c-7.8,15-16,29.8-23.8,44.9c-4.2,8-7.8,16.4-12.3,24.3
			c-2.8,5-5.5,10.1-8.3,15.1c-0.8,1.5-1.6,2.9-1.8,4.6C1165.7,1548,1127.2,1548,1088.7,1548z M1144.5,1154.3c0.7-0.1,1.6,0,1.5-1.2
			c-0.1-0.7-0.7-0.9-1.3-0.9c-0.8,0-1.8,0-1.7,1.2C1143.1,1154,1143.8,1154.2,1144.5,1154.3z"/>
		<path class="st3" d="M1666,2.7c-0.9,2.6-3.2,2.2-5.2,2.2c-14,0.6-27.9,2.3-41.8,3.5c-6.8,0.6-13.6,0.9-20.4,1.3
			c-4.1,0.3-8.2,1-12.3,1.5c-13.5,1.7-27.1,1.6-40.6,3.3c-7.3,0.9-14.8,1.2-22.2,1.7c-10.7,0.8-21.4,1.2-31.9,3.1
			c-5.5,1-11.1,0.7-16.6,1.3c-6.9,0.7-13.9,1.4-20.9,1.7c-7.6,0.3-15.2,1.3-22.7,2.1c-5.5,0.6-11.1,0.9-16.6,1.2
			c-12.6,0.7-25,2.2-37.6,3.1c-11.5,0.8-23,1.5-34.4,3.2c-5.9,0.9-11.9,0.9-17.9,1.3c-7.4,0.4-14.7,2-22.2,1.6
			c-1.8-0.1-3.6,0.7-5.5,0.9c-11.3,1-22.6,2.1-33.9,2.7c-9.1,0.4-18.1,1.4-27.1,2.3c-5.3,0.5-10.7,1.1-16,1.3
			c-7.4,0.2-14.8,1.1-22.2,1.8c-11.5,1-23,1.4-34.4,3.2c-5.7,0.9-11.5,0.8-17.3,1.1c-7.4,0.5-14.8,1.2-22.2,1.9
			c-7,0.7-14,0.5-20.9,1.8c-5.4,1.1-11.1,1-16.6,1.3c-7.2,0.4-14.4,1.2-21.6,1.8c-10.7,0.8-21.4,1.4-32,3.1
			c-6.3,1-12.8,1.1-19.1,1.4c-11.8,0.5-23.4,2.1-35.1,3c-11.9,1-23.8,1.7-35.7,3.1c-7.3,0.9-14.7,1.9-22.2,1.7
			c-2.4-0.1-4.8,0.5-8,0.8c1.8-2.3,3.1-4,4.5-5.8c1.7-0.3,3-1.4,4.3-2.4c16.5-13.3,33.2-26.5,49.6-39.9c6.9-5.6,14-10.8,20.3-17.1
			c0.1-0.5,0.2-1.1,0.2-1.6c224.7,0,449.4,0,674.1,0C1666,1.7,1666,2.2,1666,2.7z"/>
		<path class="st2" d="M1.2,307.9c6.1,0.2,11.3-3,16.2-5.5c7.9-4.1,16.3-6.7,24.3-10.6c9.6-4.7,19.6-8.5,29.3-13
			c8.2-3.8,16.9-6.5,24.8-10.7c8-4.2,16.5-7.5,24.6-11.4c5.5-2.7,11.4-4.8,17.1-7.1c16.9-7.1,33.5-14.7,50.2-22.1
			c13.5-6,27.2-11.7,40.6-17.9c6.7-3.1,13.8-5.3,20.3-9c2.1-1.2,4.5-2,7.1-1.9c0.1,2.2-0.6,4.2-2.5,5.4c-5,3.1-8.6,7.7-12.7,11.7
			c-12.4,11.9-23.6,24.9-36.8,35.8c-18.6,15.5-34.3,34-52,50.3c-8,7.4-15.2,15.5-23.2,22.9c-0.3,0.3-0.5,0.7-0.9,0.8
			c-8.2,2.6-11.2,11.1-17.5,15.9c-2.1,1.6-3.9,3.7-6,5.3c-1.9,1.4-3.5,2.8-4.5,5c-0.7,1.5-1.7,2.8-3,3.8
			c-8.8,6.4-16.1,14.4-23.5,22.3c-3.2,3.4-6.7,6.8-10.5,9.5c-3.1,2.1-5.8,4.6-8.4,7.2c-13.9,13.9-27.7,27.8-41.7,41.6
			c-3.5,3.4-6.8,7.1-11.3,9.5C1.2,399.7,1.2,353.8,1.2,307.9z"/>
		<path class="st5" d="M192.4,28.5c-11.5,6-23,12-34.5,18.1c-8,4.3-15.9,8.7-23.9,13.1c-1.1,0.5-1.9,1.2-2.5,2.3c0,0,0,0,0,0
			c-3,0.2-5.6,1.2-7.5,3.8c0,0,0,0,0,0c-1.6,0.2-3,0.9-3.8,2.5c0,0,0,0,0,0c-1.1,0.1-2,0.4-2.7,1.2l-0.5,0c0,0-0.5,0.1-0.5,0.1
			c-1.7,0.2-2.9,1-3.8,2.4c0,0,0,0,0,0c-3.3,1-6.5,2.1-8.7,5c0,0,0,0,0,0c-0.4,0.4-0.9,0.8-1.3,1.3c0,0,0,0,0,0
			c-1.4-0.1-2.7,0.2-3.7,1.3c0,0,0,0,0,0c-3.5,0.9-6.4,2.8-9.5,4.4c-16.1,8.8-32.2,17.7-48.4,26.5c-11.4,6.2-22.9,12.4-34.4,18.5
			c-2.2,1.2-3.6,2.7-3.4,5.3c0,0.3,0,0.6,0.1,0.9c-0.8,0.1-1.6,0.1-2.4,0.2c0-44.6,0-89.2,0-134.1c70.8,0,141.5,0,212.3,0
			c0,1.8-1.1,3.1-2.3,4.2c-5,4.3-8.6,9.8-13.1,14.6C195.8,22.4,193.3,25,192.4,28.5z"/>
		<path class="st2" d="M192.4,28.5c1-3.5,3.4-6.1,5.8-8.5c4.5-4.7,8.1-10.3,13.1-14.6c1.2-1.1,2.3-2.3,2.3-4.2c24,0,48,0,72,0
			c0,0.5,0,1.1,0,1.6c-0.4,1-1,1.7-2.2,2c-10.2,2.5-20.2,5.3-30.3,8.1c-15.2,4.2-30.6,7.9-45.9,11.6
			C202.2,25.8,197.6,28.4,192.4,28.5z"/>
		<path class="st5" d="M285.6,2.9c0-0.5,0-1.1,0-1.6c187.4,0,374.9,0,562.3,0c-2.3,2.1-5.1,1.3-7.7,1.3c-56.8,0-113.7,0-170.5,0
			c-2.7,0-5.4,0.1-8.1,0.1c-30.6,0-61.2-0.1-91.8-0.1c-91.2,0-182.4,0-273.7,0C292.6,2.6,289.1,2.8,285.6,2.9z"/>
		<path class="st5" d="M1666,2.7c0-0.5-0.1-1-0.1-1.4c135.3,0,270.6,0,405.9,0c-0.6,1-1.5,1.3-2.5,1.4c-2.1,0-4.1-0.1-6.2-0.1
			c-92,0-184.1,0-276.1,0c-14.3,0-28.5,0.1-42.8,0.2C1718.1,2.7,1692.1,2.7,1666,2.7z"/>
		<path class="st5" d="M991.9,1.2c-0.1,0.5-0.2,1.1-0.2,1.6c-9-0.4-18-0.4-26.9-0.1c-1-0.2-2-0.5-2.6-1.5
			C972,1.2,981.9,1.2,991.9,1.2z"/>
		<path class="st5" d="M2474.1,2.5c-6.3,0-12.7,0.1-19,0c-2,0-4.2,0.5-5.8-1.3c7.9,0,15.7,0,23.6,0
			C2473.9,1.2,2474.3,1.4,2474.1,2.5z"/>
		<path class="st5" d="M892.6,1.2c-5.8,2.1-11.6,2.1-17.4,0C881,1.2,886.8,1.2,892.6,1.2z"/>
		<path class="st5" d="M872.7,1.2c-5.8,2.1-11.6,2.1-17.4,0C861.1,1.2,866.9,1.2,872.7,1.2z"/>
		<path class="st5" d="M2402.1,1.2c-5.4,2.1-10.8,2.1-16.1,0C2391.3,1.2,2396.7,1.2,2402.1,1.2z"/>
		<path class="st5" d="M912.4,1.2c-4.1,2-8.3,2-12.4,0C904.1,1.2,908.3,1.2,912.4,1.2z"/>
		<path class="st5" d="M2446.8,1.2c-2.5,1.9-5,1.9-7.4,0C2441.8,1.2,2444.3,1.2,2446.8,1.2z"/>
		<path class="st5" d="M945.9,1.2c-2.1,1.8-4.1,1.8-6.2,0C941.8,1.2,943.9,1.2,945.9,1.2z"/>
		<path class="st5" d="M1.2,1184.3c0.8,0.2,1.7,0.3,1.7,1.2c0,1-0.9,1.1-1.7,1.2C1.2,1185.9,1.2,1185.1,1.2,1184.3z"/>
		<path class="st5" d="M1.2,1278.6c0.8,0.2,1.7,0.3,1.7,1.2c0,1-0.9,1.1-1.7,1.2C1.2,1280.3,1.2,1279.4,1.2,1278.6z"/>
		<path class="st6" d="M1.2,135.3c0.8-0.1,1.6-0.1,2.4-0.2c-0.1,1.6-1,2.4-2.4,2.7C1.2,137,1.2,136.1,1.2,135.3z"/>
		<path class="st5" d="M1.2,1546.8c0.4,0.4,0.8,0.8,1.2,1.2C1.4,1548.2,1,1547.8,1.2,1546.8z"/>
		<path class="st5" d="M1423.8,1124.7c-8.1,0.7-9.9,2.3-9.8,10.1c0,3.1-1,5.3-3.1,7.7c-3.6,4.2-8.4,7.2-11.2,12.1
			c-0.5,1-1.8,1.3-2.8,1c-7.2-2.3-12,1.9-15.8,6.8c-3.3,4.3-6.7,5-11.3,2.9c-1.7-0.8-3.8-1.4-5.4-0.7c-5.9,2.4-12.2,0.8-18.2,1.9
			c-1.8,0.3-3.3-0.2-4.8-0.8c-2.5-1.1-4.8-0.4-7.3,0c-3.3,0.6-3.2,3.3-4,5.6c-0.4,1.2-0.9,2.5-2.4,2.5c-2.1,0.1-1.9-1.7-2.1-3.1
			c-0.3-2.3-1.4-3.9-3.5-4.7c-2.9-1.1-5.4,0.1-6.2,3.1c-0.5,1.8-1.2,3.5-0.7,5.5c0.6,2.2,0.7,4.1-2.3,4.7c-3.8,0.7-6.1-0.2-7.1-2.8
			c-0.1-0.4-0.1-0.8-0.2-1.2c-0.3-1.8-1.4-3.9-2.8-3.7c-5.7,0.7-8.2-6.2-13.7-5.6c-1.6,0.2-2.6,1.1-3,2.7c-0.3,1.2-0.5,2.4-1,3.6
			c-1.2,3.5-1.7,3.7-4.6,1.1c-2.4-2.2-4.8-3.3-7.8-2.1c-2.6,1-4.4,0.1-6-1.7c-3.4-4-7.8-5.1-12.8-5c-2.5,0.1-5-0.1-7.4,0
			c-3.1,0.1-5.2-0.5-5.4-4.2c-0.1-2.3-1.8-3.5-3.9-4.4c-5.8-2.5-11.6-1.4-16,3.4c-1.2,1.3-2.4,1.6-3.9,1.3c-2.4-0.5-4.8-1.1-6.8-2.7
			c-3.7-3.1-8.6-3.7-12.5-6.5c-3-2.1-6.2,0.3-6.2,4c0,1.6,0.5,3.3,0.6,4.9c0.1,2.1-0.8,3.8-3.1,3.9c-2.3,0.1-2.5-1.8-2.5-3.5
			c-0.1-1.7,0-3.3-0.1-5c-0.2-2.3-1.5-3.9-3.6-4.6c-2.3-0.7-4.7-0.6-5.9,2c-1.1,2.4-2.9,2.6-5.1,2.6c-2.2,0-4.1,0.4-5.1,2.7
			c-0.5,1.3-1.3,2.2-2.8,1.8c-1.7-0.5-3-1.7-3.1-3.5c-0.1-1.2,0.4-2.4,0.6-3.6c0.6-4.6-0.7-6.7-5.3-7.2c-2.5-0.3-4-1.5-5.7-3.1
			c-4.1-3.9-9.9-3.6-13.4,0.9c-1.2,1.5-2.3,2.1-4.1,2c-5.5-0.4-9.8-4.2-11-9.7c-0.2-0.8-0.2-1.8-0.7-2.3c-3.3-3-4.3-6.8-4.7-11
			c-0.3-3.2-2.5-4.5-5.7-4.2c-0.2-10.7-0.7-21.4,1.1-32c0.1-0.4,0.1-0.8,0.1-1.2c-0.7-11.1,1.3-22.2,1.3-33.3
			c0-11.7,0.9-23.4,2.4-35.1c0.1-0.4,0.1-0.8,0.1-1.2c-0.8-12.4,1.6-24.7,1.2-37c-0.3-9.7,2-19.3,1.4-29c3.4-2.8,3.4-4.6,0-7.4
			c1.1-3.4,1.4-6.9,1.2-10.4c-0.8-12.8,1-25.6,1.6-38.3c0.4-8.4-0.1-17,1.1-25.3c1.6-11.7-0.2-23.6,2.2-35.2
			c0.2-0.8,0.1-1.7,0.1-2.5c-0.1-12.6,0.9-25.1,2.4-37.6c0.1-0.8,0.1-1.7,0.1-2.5c-0.8-14.9,1-29.7,1.5-44.6
			c0.5-15.4,1.7-30.9,2.6-46.3c0.4-8,0.4-16.1,1-24.1c0.8-12.1,1.3-24.3,2.1-36.4c0.8-11.7,1.4-23.5,1.8-35.2
			c0.5-12.9,0.1-26,2.1-38.9c0.1-0.4,0.1-0.8,0.1-1.2c-0.8-12.4,1.1-24.7,1.5-37.1c0.3-10.3,0.5-20.6,2.1-30.8
			c0.3-1.6,0.3-3.3,0.2-5c-0.8-13,0.9-26,1.6-39c0.4-8,0.4-16.1,1-24.1c1.3-16.7,1.9-33.3,2.6-50c0.7-16.5,1.6-32.9,2.5-49.4
			c0.8-16.7,1.6-33.4,2.6-50c0.7-10.9,0.1-21.9,1.9-32.7c0.1-0.8,0.1-1.6,0.2-2.4c12.3-0.9,24.6-2.3,36.8-4.2
			c8.3-1.2,16.7-2.2,25.1-3.3c11.8-1.5,23.7-3,35.5-4.5c7.4-0.9,14.7-2.1,22.1-2.8c9.9-0.9,19.6-2.4,29.4-3.8c10-1.4,20-2.5,30-3.8
			c18-2.4,35.9-4.9,53.9-7.2c14.9-1.9,29.9-3.4,44.8-5.3c11-1.4,22-3.5,33-4.5c11.5-1,22.9-2.9,34.4-4.2c11.5-1.3,22.9-3,34.3-4.4
			c11.2-1.4,22.5-2.8,33.7-4.2c11.4-1.5,22.8-3.2,34.3-4.4c11.7-1.2,23.2-3.7,34.9-4.4c8-0.5,15.9-1.9,23.9-2.9
			c8.2-1,16.3-2.1,24.5-3.2c8.8-1.1,17.5-2.4,26.3-3.3c11.7-1.2,23.2-3.3,35-4.3c10.2-0.9,20.4-2.7,30.6-4
			c8.4-1.1,16.7-2.2,25.1-3.3c8.6-1.1,17.1-2.4,25.7-3.2c11.5-1.1,22.8-3.4,34.3-4.4c10.9-0.9,21.6-2.9,32.5-4.3
			c8.2-1.1,16.3-2.2,24.5-2.9c3.7-0.3,7.2-1.7,11-1.3c3.3,0.3,4.1,1.1,2.5,3.7c-3.2,5.1-4.8,10.9-8.5,15.8
			c-3.6,4.7-5.9,10.4-8.5,15.7c-6.2,12.8-12.7,25.5-19.3,38.1c-9.3,17.7-18,35.7-27.6,53.2c-7.3,13.4-13.7,27.3-21.5,40.5
			c-4.2,7.1-7.1,14.9-11,22.2c-11.3,21.3-22.1,42.9-33.5,64.2c-9.6,17.8-18.9,35.8-28.1,53.7c-10.3,20-20.4,40-31,59.9
			c-15.6,29.2-30.5,58.6-45.7,88c-7.6,14.6-14.7,29.5-22.7,43.9c-8.4,15.2-16.4,30.6-24.3,46c-9.6,18.7-19.9,37.1-28.8,56.1
			c-5,10.6-11.4,20.6-16.9,31c-5.9,11.2-11.2,22.6-17.1,33.7c-10.9,20.9-22.3,41.5-32.9,62.5c-11.3,22.5-23.2,44.6-34.8,67
			c-8.1,15.6-16.3,31.1-24.8,46.4c-5.7,10.3-10.7,21-16.1,31.4c-7,13.6-13.8,27.2-21.2,40.6c-6.5,11.7-12,23.9-18.7,35.5
			c-0.6,1.1-1.4,2-2.1,3c-6.9,0.2-6.9,0.2-6.6,7c0.1,1.7-0.7,2.5-1.9,3.4c-4.7,3.6-4.9,4.7-2.7,10.7
			C1426.1,1120.8,1424.8,1122.7,1423.8,1124.7z"/>
		<path class="st6" d="M1154.4,243.3c-0.1,0.8-0.1,1.6-0.2,2.4c-4.9,3.9-8.6,8.9-12.1,13.9c-15.4,21.7-31.7,42.7-47.6,64.1
			c-13,17.5-26.3,35-39.4,52.5c-13.9,18.7-27.9,37.3-41.7,56.1c-15.9,21.6-32.2,42.8-48,64.5c-11.2,15.3-22.2,30.8-34.3,45.4
			c-6.4,7.7-11.9,16.3-17.8,24.5c-4,5.5-8.1,10.9-12.2,16.4c-5.8,7.7-11.6,15.5-17.4,23.2c-11.9,15.8-23.8,31.6-35.7,47.5
			c-4.5,5.9-8.7,12-13.2,18c-4.8,6.4-9.8,12.7-14.6,19.2c-7.7,10.5-14.7,21.5-22.9,31.5c-9.8,12-18.3,24.9-28,37
			c-10.2,12.7-19.3,26.3-29,39.4c-11,14.7-22.2,29.2-33.1,44c-9.6,13.1-19.9,25.8-28.8,39.5c-2.9,4.5-6.7,8.4-9.9,12.6
			c-8.1,10.7-15.8,21.6-24.1,32.1c-6.6,8.4-12.4,17.5-19.5,25.5c-3.2,3.7-5.8,8-8.6,12.1c-7.1,10.4-15.2,20.1-22.4,30.4
			c-3.7,5.4-8,10.5-11.9,15.8c-6.8,9.1-13.5,18.2-20.3,27.3c-7.7,10.2-15.9,20-23,30.6c-7.9,11.6-17,22.3-24.9,33.9
			c-4.2,6.1-9.1,11.7-13.4,17.8c-11,15.4-22.9,30.2-33.9,45.7c-8.4,11.8-17.5,22.9-26.2,34.5c-9.8,13-19.4,26.2-29.1,39.3
			c-15.6,21.1-30.9,42.3-46.7,63.2c-8.7,11.5-16.8,23.5-26,34.6c-7.7,9.2-13.8,19.6-21.4,28.8c-1.2,1.5-2.2,3-4.3,3
			c5.8-13,11.6-26,17.5-39c9.4-20.5,18.9-40.9,28.3-61.3c7.2-15.6,14.5-31.1,21.6-46.7c7.5-16.6,15.4-32.9,22.6-49.6
			c5.9-13.7,12.5-27,18.8-40.5c12.1-26.1,24.1-52.2,36.1-78.3c8-17.3,16-34.5,23.9-51.8c11.5-25,23-50,34.5-74.9
			c5.7-12.4,11.6-24.7,17.2-37.1c7.9-17.3,15.7-34.7,23.6-51.9c6.3-13.7,12.8-27.3,19.1-41c12.6-27.2,25.3-54.3,37.6-81.6
			c7-15.5,14.2-30.8,21.3-46.2c11.3-24.6,22.6-49.2,33.9-73.8c7.9-17.1,15.7-34.2,23.6-51.2c12.9-28,25.9-55.9,38.8-83.8
			c11.2-24.2,22.2-48.5,33.3-72.7c10.7-23.3,21.2-46.6,32.3-69.8c11.6-24.2,22.6-48.7,33.6-73.2c10.1-22.4,20.4-44.8,30.9-67
			c9.5-20,18.2-40.3,27.6-60.3c6.1-12.9,11.8-25.9,17.8-38.9c1.1-2.5,2.2-4.9,2-7.7c0,0-0.1,0-0.1,0c0.4,0,0.9,0,1.3,0
			c2.6-1.7,4.7-0.3,6.8,1.2c9.9,7.1,20.1,13.8,29.7,21.2c12.7,9.9,26.3,18.5,39.3,28c7.1,5.3,14,10.9,21.3,16
			c5.8,4,11.3,8.3,17,12.4c21,15.3,42.1,30.5,63.2,45.7c13,9.4,26.2,18.7,39.2,28.1c8.3,6.1,16.6,12.3,24.8,18.5
			C1152.1,242.6,1153.1,243.2,1154.4,243.3z"/>
		<path class="st2" d="M906.2,70.8c-1.8,3.5-5.3,5.2-8.2,7.4c-9.1,6.6-18.4,13.2-27.8,19.4c-10,6.6-19.4,13.9-29.5,20.4
			c-6.2,4-11.9,8.9-17.9,13.2c-6.8,5-13.5,10-20.8,14.3c-4.6,2.7-8.5,6.4-12.8,9.6c-13.4,9.9-27.3,19.2-40.9,28.8
			c-9.1,6.4-18,13.1-27,19.6c-14.4,10.3-28.8,20.7-43.3,30.9c-15.6,11.1-31.4,22-47,33c-7.9,5.6-15.6,11.4-23.5,17
			c-12.1,8.6-24.3,17-36.2,25.8c-17.1,12.5-34.9,24.2-51.7,37.2c-2.9,2.3-6.2,4.1-9.2,6.3c-17.3,12.3-34.7,24.6-51.8,37.1
			c-8.6,6.4-17.7,12.1-26.4,18.3c-13.8,9.8-27.5,19.7-41.1,29.7c-4,3-8.4,5.2-12.5,8c-0.4-1.9-1.3-2.3-3.1-1.2
			c-6.3,3.7-10,2.9-14.3-2.6c-0.7-1-0.9-1.9-0.1-2.7c2.6-2.6,3.6-5.8,4.2-9.4c0.5-2.7,3.6-3.7,5.3-5.8c2.1-2.6,4.4-4.8,4.3-8.5
			c-0.1-2.4,1.5-3.2,3.7-3.2c3.7,0,7.4,0,11.2,0c0.1,2.2,0,4.5,0.1,6.8c0.1,1.3,0.8,2.4,2.3,2.5c1.6,0,6.2-5.7,5.9-7.2
			c-0.3-1.2-1.1-1.8-2.2-1.9c-2.1-0.1-4.1,0-6.1-0.1c-0.1-3.2,0-6.3-0.2-9.4c-0.1-3.2-1.3-5.7-5.1-5.6c-3.8,0.1-5.4-2.7-7.2-5.1
			c-1.6-2.1-0.9-4,1.7-4.6c1.4-0.3,2.9-0.3,4.3-0.2c3.7,0.3,6-1.1,6.4-5c0.8,0,1.7,0,2.5,0c6,0.3,7.2,1.5,7.5,7.3
			c0.1,1.8-0.3,3.7,0.5,5.5c0.2,0.5,0.8,1.1,1.3,1.2c0.8,0.2,1.6-0.2,2-1c0.4-0.7,0.7-1.5,0.9-2.3c1.7-5.5,1.8-5.5,7.6-5.8
			c5.8-0.2,5.9-0.2,7.4-5.8c0.7-2.4,2.1-3.5,3.8-1.8c3.3,3.2,7.2,2.5,11.1,2.6c0.2,1.3-0.2,3,1.8,3.3c0.7,0.1,1.2-0.3,1.2-1
			c-0.1-1.9-1.6-2-3-2.3c-0.1-1,0.2-2.6-0.3-3c-3.6-2.5-4.8-6.2-5.8-10.1c-0.5-1.8-3.4-3-1.7-5.3c2-2.7,3.8-6.1,7.9-6.3
			c3.3-0.1,6.6-0.1,9.7-0.2c0.8,1.6-0.7,4,2.1,4.6c0.7,0.1,1.2-0.4,1.3-1c0.4-2.1-0.9-2.9-3.4-3.6c0.6-0.8,0.7-2,1.3-2.7
			c2.7-2.9,3.6-5.4,0-8.3c-1.3-1-1.1-2.5,0.5-3.6c0.8-0.6,2.1-1.2,2.2-2c0.9-4.9,2.9-8.4,8.5-8.7c0.7,0,1.1-1.2,1-2
			c-0.1-1.2-0.8-2-1.9-2.1c-2.1-0.2-4.1-0.2-6.2-0.2c-4.1-0.1-8.4,0.8-10.9-3.9c-0.7-1.3-2.2-0.7-3.3,0.1c-1,0.8-1.8,1.7-2.8,2.5
			c-1.9,1.6-4.4,2.2-6.3,0.7c-2.8-2.1-5.2-4.4-8.8-5.1c-1.6-0.3-1.5-2.3,0.1-3.4c1.3-0.9,2.8-0.7,4.2-0.7c2.9,0,5.8,0,8.7-0.1
			c1.6-0.1,2.7-1,3.2-2.5c0.5-1.7-0.8-2.1-1.9-2.6c-0.6-0.3-1.3-0.5-1.5-1c-1.4-2.7-6.6-4.4-4.9-7c1.9-3,5.1-6.6,9.8-6.6
			c4.8,0,9.5,0,14.2-0.1c0.1,2.5,0.1,5,0.5,7.4c0.3,1.8,2.2,2.4,3.2,1.1c1.5-1.9,1.7-4.2,1.1-6.5c-0.5-2.1-2.4-1.9-4.7-2
			c-0.1-1.9-1.2-3.4-2.3-4.9c-1.7-2.6-1-4.2,2-4.8c1-0.2,2.1-0.1,3.1-0.2c1,0,2.4,0.4,3-0.2c3.9-2.9,7.7-5.6,12.9-5.6
			c0.9,0,1.2-1.6,1.1-2.7c-0.3-3.2,1-5.5,3.3-7.6c1.8-1.6,1.7-4.1,1.7-6.4c0-1.2,0-2.5,0.1-3.7c0.1-1.1,0.7-2,1.9-2
			c1.2,0,1.9,0.7,2.4,1.7c0.7,1.6,0.5,3.2,0.5,4.9c0.3,9.1,8.4,14.6,16.8,11.3c2.8-1.1,3-3.6,3-6.2c0-2.8-1.8-3.3-4.1-3.5
			c-3.1-0.2-5.8-1-5.8-4.9c1.5,0,2.9-0.1,3.7-1.6c0.6-1.1,0.8-2.1-0.5-3.1c-4.1-3.4-4.5-6.2-1.2-9.8c1.4-1.6,2.6-3.1,2.9-5.3
			c2.5,0.2,3.3-1.9,4.9-3c3.2-2.2,5.5-4.2,5.4-8.6c0-2.3,2.2-1.8,3.8-0.8c1.3,0.8,2.4,3,4.2,1.3c1.8-1.7,1.8-4,0.9-6.3
			c-0.7-1.8-3.5-2.9-2.4-5.3c1-2.3,3.5-1.8,5.4-2.1c1.7-0.3,2.5-1.3,2.5-3c0.1-2.3,0.1-4.5,0.1-6.8c1.3-0.1,3.1,0.1,3.3-1.7
			c0.3-2.3-1.4-3-3.3-3.3c-0.3-3.2,0.7-5.3,4.4-5c2.2,0.2,3.8-0.7,5.5-2.2c2.8-2.3,4.4-1.5,4.8,2c0.1,1.2,0,2.5,0.1,3.7
			c0.2,5,0.1,5,5.3,6.5c2.7,0.8,4,2.4,4.6,5.1c1.1,4.7,1.3,4.9,5.1,2.2c1.8-1.2,3.1-1,4.4,0.3c2.1,2.1,4.7,2.5,7.4,2.2
			c2.3-0.3,3.2-1.7,1.7-3.2c-2.7-2.6-4.2-5.5-3.9-9.3c0-0.5-0.4-1.4-0.9-1.5c-3.9-1.1-4.1-4.1-4-7.3c0-1.3-0.3-2.6-1.6-3.1
			c-3.5-1.4-3.4-4.3-3.3-7.3c0-2.1,0-4.1,0-6.2c0.1-5.7,0.4-4.7,5.8-7c4.8-2,8.5-3.5,12.9,0.2c0.6,0.5,2,0.1,3-0.1
			c1.2-0.2,1.7-1.1,1.6-2.3c0-0.9-0.4-1.6-1.3-1.9c-0.6-0.2-1.2-0.3-1.8-0.4c-4.9-0.9-4.9-0.9-2.1-5.4c1.1-1.8,1.7-3.7,1.9-5.8
			c0.1-1.1,0.7-2,1.9-2.1c1.1-0.1,2,0.6,2.4,1.6c0.4,1.2,0.5,2.4,0.7,3.6c0.2,1.1,0.7,2.1,1.8,2.2c1.5,0.2,2-1.2,2.5-2.3
			c0.3-0.8,0.5-1.6,0.5-2.4c0-4.1,3.9-5,6-7.4c1.1-1.3,2.7,0,3.8,1c1.3,1.1,2.9,2.6,4.2,0.6c1.4-2.2,4.5-3.3,4.4-6.4
			c-0.1-1.5-1.4-2.2-2.7-2c-4.6,0.5-6.3-3.3-9-5.7c-1.9-1.7-0.8-2.9,1-3.7c3-1.2,6.1-0.6,9.2-0.6c3.1,0,6.2,0.3,8-3.3
			c0.8-1.7,2.7-1.7,4.4-1.7c2.7,0,5.4-0.1,8.1,0c3.2,0.1,6.1,0,8.1-3.3c1.2-2,3.6-1.8,5.7-1.7c3.7,0.2,6.9-0.6,9.8-2.9
			c2.8-2.2,6.2-2.1,9.5-2.1c6,0.2,11.9,0.3,17.1-3.8c2.5-2,6-1.2,9.1-1.1c5.4,0.1,10.5-0.1,15.3-3.5c3.5-2.5,8.2-2.5,12.5-2
			c6.1,0.8,11.9,1.2,17.1-3.1c1.4-1.2,3.4-1.6,5.3-1.4c5.5,0.6,10.6-1.2,15.7-3.1c3.7-1.4,7.5-2.2,11.5-1.9c3.6,0.3,7-0.6,10.2-2.1
			c4.4-2.1,8.9-3.2,13.8-2.9c4.2,0.3,8.2-0.4,11.9-2.8c0.7-0.4,1.5-0.8,2.3-0.9c12.9-1,24.9-7.3,38.1-6.3c2.8,0.2,5.4-0.6,7.7-1.9
			c4.3-2.4,8.9-3.2,13.7-3c4.4,0.2,8.6-0.5,12.6-2.5c0.4-0.2,0.7-0.4,1.1-0.5c9.9-1.2,19.2-5.9,29.4-5.7c3,0,5.6-1.1,8.4-2
			C903.3,69.5,904.9,69.4,906.2,70.8z"/>
		<path class="st4" d="M1744.2,2.7c14.3-0.1,28.5-0.2,42.8-0.2c92,0,184.1,0,276.1,0c2.1,0,4.1,0.1,6.2,0.1c0.3,2.6-1.3,4.2-2.9,5.9
			c-14.1,14.2-27.3,29.2-41.8,43.1c-12.6,12-23.8,25.3-36,37.6c-10.4,10.5-21,20.7-31.3,31.4c-6,6.2-11.8,12.7-18,18.7
			c-4.3,4.2-4.7,4.4-9.3,0.7c-5.3-4.2-10.5-8.7-15.3-13.5c-9.2-9.2-18.6-18.2-29.2-25.7c-5.2-3.7-9.1-9-14.3-12.8
			c-4.3-3.2-9.1-5.5-13.2-9c-3.3-2.7-5.2-1.9-8.3,1.1c-2.4,2.4-7.7,2.7-10.8,0.4c-2.1-1.6-4-3.5-5.9-5.4c-4.8-4.9-10.3-4.2-13.2,1.8
			c-0.8,1.7-1.3,2.1-3.2,1.4c-6.2-2.1-15.8-1.8-22.1,0.5c-1.2-3.7-2.7-7.3-7.8-6.9c-2.4,0.2-4.3,0.8-6,2.6c-2.6,2.9-5.5,5.5-8.3,8.3
			c-2.2,2.2-4.4,4.4-7.9,4.3c-0.7,0-1.8,0.4-2.2,1c-2.5,4.1-6.4,3.9-10.4,3.8c-1.7-0.1-3.4,0-4.7,1.3c-2.4,2.6-5.8,2.9-8.6,4.4
			c-4.8,2.6-7.4,0.6-10-2.7c-1.7-2.1-3.7-3.1-6.4-3c-3.2,0-5.8,0.8-6.7,4.2c-0.6,2.4-1.5,3.2-3.8,1.7c-2-1.3-4.7-1.6-6.6-0.7
			c-7,3.1-12.4,0.2-17.8-3.8c-2.7-2-7.5-2.3-9.8,0.1c-3.3,3.5-7.2,3.7-11.3,3.5c-4.2-0.2-8.1,0-11.3,3.6c-1.7,2-4.1,1.7-5.8-0.7
			c-1.7-2.5-4.2-3.1-7-3c-3.3,0.1-6.6-0.1-9.9,0.1c-4.1,0.2-5.6,1.3-6.1,5.5c-0.4,3-1.4,4.6-4.5,4.5c-1.8-0.1-3.3,0.7-4.4,2
			c-2.2,2.7-5.2,3.1-8.4,3c-2.7-0.1-5.4-0.1-8.1,0c-2.4,0.1-4.3-0.6-6.2-2.2c-4.7-3.8-8.3-4-12.6-0.2c-2.3,2-4.6,2.6-7.4,2.4
			c-3-0.2-5.8,0.2-7.8,2.7c-1.8,2.1-4.2,2.4-6.8,2.2c-3.2-0.2-6.1,0.3-8.4,3c-2,2.4-4.3,2.3-6.4,0c-3.5-3.8-7.5-3.9-11.8-1.6
			c-1.9,1-3.5,0.9-5.2-0.3c-1.8-1.3-3.9-1.1-6-1c-3.1,0.2-5.2,1.8-5.4,4.9c-0.2,2.7-0.9,4.7-3.2,6.2c-2.5,1.7-4.2,0.2-6.3-0.6
			c-2.7-1.1-5.7-1.2-8.4,0.5c-2,1.3-3.6,1-5.7,0c-4-1.8-8-2.1-11.1,2c-1.3,1.8-3.3,2.5-4.8,1.1c-3.1-2.7-6.5-4.6-11.4-4.9
			c7.5-3.9,14-7.4,20.6-10.8c1.5-0.8,3-1.8,4.6-1.8c7.8-0.3,13.6-5.3,20.3-8.2c1.3-0.6,2.5-1.5,3.3-2.8c2.8-4.6,7.6-5.4,11.9-4.6
			c5.4,1,8.9-1.6,12.1-4.6c2.6-2.4,4.6-5.3,8.6-5.2c0.2,0,0.5,0,0.6-0.2c3.6-3.4,7.5-5.6,12.7-3.6c0.6,0.2,1.8-0.3,2.2-0.9
			c3.2-4.4,8.9-4.9,12.8-8.3c0.9-0.8,2.3-1.6,3.3-1.4c4.1,0.8,7.1,0.1,8.7-4.3c0.5-1.3,2.6-1.1,4-0.7c1.6,0.5,3.7,1.5,4.7,0.3
			c3.9-4.5,10.1-5.1,14.5-8.7c1.7-1.4,3.5-2.5,5.6-1.6c3.1,1.3,5.5-0.1,7.2-2.1c2.3-2.7,4.9-3.5,8.2-3.3c1.7,0.1,3.3-0.2,4.1-2.1
			c1.2-2.9,3.8-3,6.3-2.8c3.5,0.2,6.1-1.1,8.9-3.2c7.6-5.7,15.9-10,25.4-12.1c4.3-1,8.4-3.4,12.5-5.3c3.9-1.8,7.4-4.6,12-4.4
			c0.4,0,0.9-0.1,1.2-0.4c4.3-4.8,10.9-4.5,16-7.4c2.8-1.6,6.1-2.5,8.4-5.1c2-2.4,4.9-1.9,7.5-1.9C1738.8,8.7,1742.4,7.1,1744.2,2.7
			z M1835.4,59.8c-2.3-0.1-3.3,1.2-2.4,3.1c0.6,1.3,1.4,2.5,2.3,3.6c1,1.3,2,3.1,3.9,2.1c2.3-1.1,2.1-3.5,1.4-5.4
			C1839.8,60.9,1837.5,60.2,1835.4,59.8z"/>
		<path class="st6" d="M964.7,2.8c9-0.3,18-0.4,26.9,0.1c-6.3,6.3-13.5,11.5-20.3,17.1c-16.5,13.4-33.1,26.6-49.6,39.9
			c-1.3,1-2.5,2.1-4.3,2.4c0.1-1.8,1.2-3,2.2-4.2c13.3-16.1,26.6-32.3,39.9-48.4C961.3,7.3,964,5.8,964.7,2.8z"/>
		<path class="st2" d="M518.9,209.8c-1.9-0.1-3.6,0.5-5,1.9c-4.7,5-10.6,2.7-16.2,2.6c-0.8,0-1.6-0.7-1.7-1.6
			c-0.3-2.7,2.1-3.8,3.4-5.5c1-1.4,2.7-1.1,3.8,0.1c2.4,2.4,4.2,2.4,6.5-0.4c2.4-2.8,6-1.9,9.3-2
			C518.9,206.5,518.9,208.1,518.9,209.8z"/>
		<path class="st2" d="M350.1,458c-0.8-1.7-1.2-11.2-0.4-13.2c0.7-1.7-0.6-4.7,2.4-5c2.4-0.2,3.7,2.3,5.5,3.6
			c0.9,0.6,1.3,1.9,0.6,2.7c-2.2,2.6-3,5.7-3.8,8.8C353.9,456.9,352.1,457.9,350.1,458z"/>
		<path class="st2" d="M464.2,267c0,1,0,2.1,0,3.1c-0.1,1.7-0.5,3.3-2.5,3.8c-1.7,0.4-2.6-0.7-3.6-1.9c-0.9-1.1-2-2.1-3-3.1
			c-2-2.2-2.7-4.6-1.1-7.4c1.6-2.8,4.3-2.1,6.7-1.9c3.3,0.3,3.5,3,3.5,5.6C464.3,265.8,464.3,266.4,464.2,267
			C464.3,267,464.2,267,464.2,267z"/>
		<path class="st2" d="M341.4,473c-4.1,4.9-9.4,8.1-14.9,11.1c-0.5-5.2,2.9-9.2,4.3-13.9c0.7-2.5,5.5-3,8.2-1.3
			C340.4,469.9,341.2,471.2,341.4,473z"/>
		<path class="st2" d="M385.8,383.5c-0.3,0-1.5-0.1-2.7-0.5c-1.3-0.5-2-1.8-1.2-3c1.9-2.6,3.4-5.8,7.1-6.2c2.1-0.3,3.9-0.8,5.3-2.6
			c1-1.3,2.5-1.5,3.8-0.5c1.5,1.1,1.7,2.8,1,4.4c-0.8,2.1-2.5,3.2-4.7,3.3c-1.9,0.1-4.2,0.4-4.3,2.6
			C390.1,384,388.5,383.6,385.8,383.5z"/>
		<path class="st3" d="M1426.4,1118.5c-2.2-6-2-7.1,2.7-10.7c1.2-0.9,2-1.7,1.9-3.4c-0.3-6.8-0.3-6.8,6.6-7c0,0.6,0.1,1.3-0.2,1.8
			C1434.2,1105.9,1430.3,1112.2,1426.4,1118.5z"/>
		<path class="st2" d="M368.7,373.4c0-2,0.4-3.9,2.6-4.4c2.6-0.5,5.3-1.1,7.6,1c0.1,0.1,0.3,0.3,0.3,0.5c0.7,1.7-0.2,2.8-1.5,3.6
			c-2.3,1.4-3,5.5-6.9,4C368.8,377.3,368.7,375.3,368.7,373.4z"/>
		<path class="st2" d="M447.9,281.2c-0.3,1.8-1.2,2.5-2.5,2.9c-2.6,0.7-9.4-3.1-10.1-5.7c-0.3-1.1,0.4-2,1.2-2.6
			c1.6-1.4,3.5-1.8,5.1-0.6C443.9,276.9,446.6,278.5,447.9,281.2z"/>
		<path class="st2" d="M359.8,398.5c-2.3-0.1-4.9,0.2-5.7-2.7c-0.6-2.2-1-4.7,1.1-6.3c2.5-1.9,4.1,0.4,5.7,1.8
			c0.5,0.4,0.9,0.8,1.3,1.3c1.1,1.4,3.2,2.5,2,4.6C363.3,399,361.3,398.3,359.8,398.5z"/>
		<path class="st2" d="M402.2,314.2c2.1,0.1,7.3,5.4,7.2,7.5c-0.1,2-2.9,3.2-4.8,1.7c-2-1.6-3.8-3.7-5.3-5.8
			C398.3,316,400,314.1,402.2,314.2z"/>
		<path class="st2" d="M478,239.6c0-3,1.3-4.7,3.5-4.7c1.9,0,3.9,2.9,3.6,5.5c-0.2,2.1-1.1,4-3.7,4C479.2,244.3,478,242.6,478,239.6
			z"/>
		<path class="st2" d="M357.4,423.5c1.9,0.1,3.8,3,3.5,5.6c-0.3,2.1-1.2,4.1-3.7,3.9c-3-0.2-3.4-2.5-3.3-4.8
			C353.9,425.1,355.2,423.4,357.4,423.5z"/>
		<path class="st2" d="M389.8,364.1c0-3.2,1.7-5.1,4.3-5.1c1.3,0,2.5,0.5,3.3,1.5c1,1.3,0,2.2-0.7,3.2c-0.5,0.7-1,1.3-1.4,2
			c-0.7,1.2-0.9,3-2.9,2.6C390,367.7,389.9,365.8,389.8,364.1z"/>
		<path class="st2" d="M310.3,468.7c-0.1,1.6,0.1,3.7-2.4,4c-2.4,0.3-3.9-1.7-3.7-5.1c0.1-2.2,0.5-4.2,3.2-4.2
			C309.4,463.4,310.4,465.3,310.3,468.7z"/>
		<path class="st2" d="M579.4,136.9c0,2-1.2,3-3,3.1c-1.7,0.1-3.5-0.2-3.5-2.4c0.1-2.1,1.7-3.2,3.6-3.3
			C578.2,134.3,579.2,135.3,579.4,136.9z"/>
		<path class="st2" d="M385.5,406c-0.4,1.8-1.4,3-3.2,3.1c-1.7,0.1-3.4-0.8-3.3-2.8c0.1-2,1.6-2.7,3.4-2.7
			C384,403.6,385.2,404.2,385.5,406z"/>
		<path class="st2" d="M537.8,194.9c-1.6-0.1-3.3,0-3.2-1.6c0.2-2,1.8-3.2,3.9-3c1.4,0.1,3.2,0.6,3.1,2.3
			C541.5,195.1,539.1,194.6,537.8,194.9z"/>
		<path class="st2" d="M535.8,180.2c1.7,0,2.8,0.7,2.7,2.5c0,1.5-0.6,2.9-2.4,2.9c-1.7,0-3.3-0.8-3.2-2.8
			C533,181.1,534.3,180.4,535.8,180.2z"/>
		<path class="st2" d="M394.6,341.9c-0.3,1.5-1,2.8-2.7,2.6c-1.6-0.2-3.3-1-2.8-3.2c0.3-1.6,1.6-2.3,3.2-2.2
			C394,339.1,394.6,340.2,394.6,341.9z"/>
		<path class="st2" d="M357.4,413.6c1.8,0.1,2.6,1.1,2.4,2.8c-0.1,1.6-1,2.8-2.7,2.6c-1.4-0.2-2.9-0.9-2.9-2.6
			C354.2,414.4,355.6,413.7,357.4,413.6z"/>
		<path class="st2" d="M540.6,200.1c1.9,0,3,0.7,2.9,2.5c0,1.5-0.6,2.9-2.4,2.9c-1.7,0-3.3-0.8-3.2-2.8
			C537.9,201,539.3,200.3,540.6,200.1z"/>
		<path class="st2" d="M486.3,205c1.8,0,2.7,1,2.6,2.7c-0.1,1.5-0.8,2.9-2.6,2.8c-1.5-0.1-2.9-0.7-3-2.4
			C483.2,206,484.6,205.2,486.3,205z"/>
		<path class="st2" d="M394.6,351.1c0,1.7-0.4,3.2-2.2,3.3c-1.8,0.2-3.3-0.6-3.5-2.6c-0.1-1.6,1.1-2.5,2.7-2.8
			C393.3,348.8,394.3,349.5,394.6,351.1z"/>
		<path class="st2" d="M436.8,354.5c-1.7-0.3-3.3-0.9-3.1-3c0.1-1.7,1.4-2.4,2.9-2.5c1.7-0.1,2.7,0.8,2.7,2.5
			C439.2,353.1,438.6,354.3,436.8,354.5z"/>
		<path class="st2" d="M377.1,358.9c1.8,0,2.7,1,2.6,2.7c-0.1,1.5-0.8,2.9-2.6,2.8c-1.5-0.1-2.9-0.7-3-2.4
			C373.9,359.9,375.3,359.2,377.1,358.9z"/>
		<path class="st2" d="M365.6,375.8c-0.1,2-1.4,2.6-2.9,2.7c-1.4,0.1-3.2,0.2-3.4-1.7c-0.3-2,1.3-2.9,3.1-3
			C363.9,373.7,365.1,374.3,365.6,375.8z"/>
		<path class="st2" d="M486.1,219.6c-1.3,0-2.7-0.3-2.7-1.8c-0.1-2,1.3-2.9,3.1-2.9c1.4,0,2.3,0.7,2.4,2.2
			C488.9,219,487.7,219.5,486.1,219.6z"/>
		<path class="st2" d="M419.4,356.1c-0.3,2.2-1.6,2.6-3.1,2.6c-1.3,0-2.5-0.5-2.4-2c0.1-2,1.6-2.7,3.4-2.6
			C418.7,354.1,419.2,355.2,419.4,356.1z"/>
		<path class="st2" d="M325,401c0,1.7-1.2,2.3-2.8,2.3c-1.3,0-2.7-0.3-2.7-1.8c-0.1-2,1.3-2.8,3.1-2.9
			C324,398.7,324.9,399.4,325,401z"/>
		<path class="st2" d="M342.1,438.1c-1.3,0-2.7-0.3-2.7-1.8c-0.1-2,1.3-2.9,3.1-2.9c1.4,0,2.3,0.7,2.4,2.2
			C344.9,437.5,343.7,438,342.1,438.1z"/>
		<path class="st2" d="M369.7,351.3c0,1.7-1.2,2.3-2.8,2.4c-1.3,0-2.7-0.3-2.7-1.8c-0.1-2,1.3-2.8,3.1-2.9
			C368.7,349,369.6,349.7,369.7,351.3z"/>
		<path class="st2" d="M401.8,299.4c1.4,0,2.5,0.5,2.6,1.9c0.2,1.7-0.8,2.6-2.5,2.7c-1.5,0.1-3,0-3-2
			C399,300.2,400.3,299.6,401.8,299.4z"/>
		<path class="st2" d="M327.1,433.2c-1.5-0.1-2.8-0.5-2.7-2.1c0.2-2,1.6-2.7,3.4-2.6c1.4,0.1,2.2,1,2,2.4
			C329.8,432.9,328.4,433.1,327.1,433.2z"/>
		<path class="st2" d="M257,533.8c-2,2.7-5,4.1-7.5,6.2C250.2,533.6,251.3,532.7,257,533.8z"/>
		<path class="st2" d="M203.6,571.1c-1.6,3.1-4.9,4.2-7.5,6.2C196.2,572.2,199.7,571.4,203.6,571.1z"/>
		<path class="st2" d="M366.2,455.6c-1,2-2.8,2.5-4.9,2.5c-1-1-1.1-2.1,0.1-2.9C363.1,454,364.7,454.2,366.2,455.6z"/>
		<path class="st2" d="M350.1,458.1c-0.1,1.7-0.2,3.5-2.5,3.5c-2.3,0-2.4-1.8-2.5-3.5C346.8,458.1,348.4,458.1,350.1,458.1z"/>
		<path class="st2" d="M193.7,578.5c-1.4,2.5-4.1,3.3-6.2,5C188.4,578.9,188.4,578.9,193.7,578.5z"/>
		<path class="st4" d="M410.2,135.6c-0.2,1.1-0.9,1.7-1.9,1.9c-0.8,0.1-1.7-0.1-1.6-1.1c0-1.1,0.8-1.7,1.9-1.9
			C409.4,134.3,410.1,134.5,410.2,135.6z"/>
		<path class="st2" d="M411.7,381.9c-1,0-1.6-0.5-1.6-1.4c0-0.9,0.7-1.4,1.6-1.4c0.7,0,1.1,0.5,1.2,1.1
			C413,381.1,412.6,381.8,411.7,381.9z"/>
		<path class="st2" d="M345.1,458.1c-1.4-0.3-2.9-0.5-3-2.3c0-0.7,0.5-1.1,1.2-1C345.3,455.1,344.9,456.7,345.1,458.1z"/>
		<path class="st2" d="M29.8,695.2c-1.1,1.9-2.6,3.5-5,3.7C25.1,695.8,27.2,695.1,29.8,695.2z"/>
		<path class="st2" d="M416.9,375.6c0.7,0.1,1.1,0.5,1.1,1.2c-0.1,0.9-0.6,1.5-1.6,1.4c-0.7,0-1.2-0.4-1.1-1.2
			C415.4,376.2,416,375.6,416.9,375.6z"/>
		<path class="st2" d="M496.3,236.5c0.7,0.1,1.1,0.5,1.1,1.2c-0.1,0.9-0.6,1.5-1.6,1.4c-0.7,0-1.2-0.4-1.1-1.2
			C494.8,237.1,495.4,236.6,496.3,236.5z"/>
		<path class="st2" d="M494.2,244.6c-1.5-0.3-3-0.5-3.1-2.3c0-0.7,0.5-1.1,1.2-1C494.3,241.6,493.8,243.3,494.2,244.6z"/>
		<path class="st2" d="M489.1,264.4c-1.4-0.3-2.9-0.5-3-2.3c0-0.7,0.5-1.1,1.2-1C489.3,261.4,488.9,263.1,489.1,264.4z"/>
		<path class="st2" d="M452.6,278.4c0,0-0.5,0.6-1.5,0.5c-0.7,0-1.2-0.4-1.1-1.2c0.1-0.9,0.7-1.5,1.6-1.5
			C452.3,276.3,452.8,276.7,452.6,278.4z"/>
		<path class="st2" d="M551.8,168.1c-0.2,0.7-0.7,1.3-1.7,1.3c-0.7-0.1-1-0.7-0.7-1.3c0.3-0.5,0.8-1,1.3-1.1
			C551.4,166.8,551.9,167.3,551.8,168.1z"/>
		<path class="st2" d="M555.6,164.4c-0.7,0.1-1.2-0.1-1.2-0.8c0-0.9,0.6-1.5,1.4-1.6c0.3,0,0.8,0.3,0.9,0.5
			C557,163.5,556.4,164.1,555.6,164.4z"/>
		<path class="st2" d="M456.2,282.7c-0.6-0.1-1.1-0.3-1.1-1c0.1-0.6,0.7-0.9,1.3-0.7c0.3,0.1,0.7,0.4,0.8,0.7
			C457.4,282.3,456.9,282.6,456.2,282.7z"/>
		<path class="st2" d="M546.7,171.7c0.6,0,1.2,0.2,1.2,0.9c0,0.7-0.6,1-1.2,0.9c-0.3,0-0.8-0.3-0.9-0.6
			C545.6,172.2,546,171.8,546.7,171.7z"/>
		<path class="st2" d="M207.3,568.6c-0.8,1.5-2,2.4-3.7,2.5C203.9,568.8,205.5,568.5,207.3,568.6z"/>
		<path class="st2" d="M227.2,554.9c-0.8,1.5-2,2.4-3.7,2.5C223.8,555.2,225.4,554.9,227.2,554.9z"/>
		<path class="st2" d="M132.9,621.9c-0.8,1.5-2,2.4-3.7,2.5C129.4,622.2,131,621.9,132.9,621.9z"/>
		<path class="st2" d="M7.5,711.3c-0.8,1.5-2,2.4-3.7,2.4C4.1,711.5,5.7,711.3,7.5,711.3z"/>
		<path class="st2" d="M566.7,152.5c-0.2,0.2-0.4,0.5-0.6,0.7c-0.2-0.2-0.4-0.4-0.6-0.7c0-0.1,0.2-0.4,0.3-0.4
			C566.1,152.2,566.4,152.4,566.7,152.5z"/>
		<path class="st2" d="M515.7,197.5c0.2-0.2,0.5-0.4,0.7-0.6c0.2,0.2,0.4,0.5,0.5,0.8c0,0.1-0.3,0.4-0.3,0.4
			C516.3,197.9,516.1,197.7,515.7,197.5z"/>
		<path class="st2" d="M373.1,410.8c-0.2,0.2-0.5,0.4-0.7,0.6c-0.2-0.2-0.4-0.5-0.5-0.8c0-0.1,0.3-0.4,0.3-0.4
			C372.5,410.4,372.7,410.6,373.1,410.8z"/>
		<path class="st2" d="M551.1,206.6c0.2,0.2,0.4,0.5,0.6,0.7c-0.2,0.2-0.5,0.4-0.8,0.5c-0.1,0-0.4-0.3-0.4-0.3
			C550.7,207.2,550.9,207,551.1,206.6z"/>
		<path class="st2" d="M407.8,376.1c-0.2,0.2-0.5,0.4-0.7,0.6c-0.2-0.2-0.4-0.5-0.5-0.8c0-0.1,0.3-0.4,0.3-0.4
			C407.2,375.7,407.5,375.9,407.8,376.1z"/>
		<path class="st2" d="M432.7,281.7c-0.2,0.2-0.5,0.4-0.7,0.6c-0.2-0.2-0.4-0.5-0.5-0.8c0-0.1,0.3-0.4,0.3-0.4
			C432.1,281.3,432.3,281.5,432.7,281.7z"/>
		<path class="st2" d="M442.5,341.2c-0.2,0.2-0.4,0.5-0.6,0.7c-0.2-0.2-0.4-0.4-0.6-0.7c0-0.1,0.2-0.4,0.3-0.4
			C442,340.9,442.3,341.1,442.5,341.2z"/>
		<path class="st2" d="M422.6,301.6c-0.2,0.2-0.5,0.4-0.7,0.6c-0.1-0.3-0.3-0.5-0.4-0.8c0-0.1,0.3-0.3,0.4-0.3
			C422.2,301.2,422.4,301.4,422.6,301.6z"/>
		<path class="st3" d="M910,70.8c-0.4,0-0.9,0-1.3,0C909.1,70.2,909.5,70.3,910,70.8z"/>
		<path class="st3" d="M1118.5,942.2c3.4,2.8,3.4,4.6,0,7.4C1118.5,947.2,1118.5,944.7,1118.5,942.2z"/>
		<path class="st6" d="M310.4,1371.7c0.4-0.4,0.8-0.9,1.2-1.3C311.2,1370.8,310.8,1371.2,310.4,1371.7z"/>
		<path class="st6" d="M3.6,134.2c-0.2-2.6,1.2-4.2,3.4-5.3c11.5-6.1,23-12.3,34.4-18.5c16.1-8.8,32.3-17.7,48.4-26.5
			c3.1-1.7,6.1-3.6,9.5-4.4c-0.6,3.1-3.4,4-5.6,5.3C71.8,97,49.7,109,28,121.5c-6.4,3.7-12.7,7.5-19.2,10.9
			C7.1,133.3,5.5,134.1,3.6,134.2z"/>
		<path class="st6" d="M104.2,76.9c2.2-2.8,5.4-4,8.7-5C111.4,75.9,107.9,76.6,104.2,76.9z"/>
		<path class="st6" d="M124.1,65.8c1.8-2.6,4.5-3.5,7.5-3.8C129.9,64.9,127.2,65.7,124.1,65.8z"/>
		<path class="st6" d="M112.9,72c0.9-1.4,2.1-2.2,3.8-2.4C116.4,71.8,114.7,72,112.9,72z"/>
		<path class="st6" d="M120.4,68.2c0.8-1.5,2.1-2.3,3.8-2.5C123.8,68,122.2,68.3,120.4,68.2z"/>
		<path class="st6" d="M99.3,79.4c1-1.1,2.3-1.4,3.7-1.3C102.1,79.4,100.7,79.4,99.3,79.4z"/>
		<path class="st6" d="M131.5,62c0.5-1.1,1.4-1.8,2.5-2.3C133.8,61.2,133,61.9,131.5,62z"/>
		<path class="st6" d="M117.7,69.5c0.7-0.8,1.6-1.2,2.7-1.2C119.7,69.2,118.8,69.5,117.7,69.5z"/>
		<path class="st6" d="M103,78.2c0.4-0.4,0.9-0.8,1.3-1.3C103.8,77.3,103.4,77.8,103,78.2z"/>
		<path class="st5" d="M1144.5,1154.3c-0.7-0.1-1.4-0.3-1.5-0.9c-0.1-1.1,0.9-1.2,1.7-1.2c0.6,0,1.3,0.2,1.3,0.9
			C1146.2,1154.3,1145.2,1154.2,1144.5,1154.3z"/>
		<path class="st1" d="M390,413.5c1.9,0,4-0.1,6,0c1.1,0.1,1.9,0.7,2.2,1.9c0.3,1.6-4.2,7.3-5.9,7.2c-1.5,0-2.2-1.2-2.3-2.5
			C389.9,417.9,390,415.7,390,413.5z"/>
		<path class="st1" d="M449.2,299.1c2.4,0.2,4.3-0.1,4.8,2c0.6,2.3,0.4,4.6-1.1,6.5c-1,1.3-2.9,0.7-3.2-1.1
			C449.4,304.1,449.4,301.6,449.2,299.1z"/>
		<path class="st1" d="M518.9,209.8c0-1.7,0-3.3,0-5c1.9,0.3,3.6,1,3.3,3.3C522,209.9,520.2,209.7,518.9,209.8z"/>
		<path class="st1" d="M444,358.6c2.7,0.8,4.1,1.6,3.6,3.7c-0.1,0.6-0.6,1.1-1.3,1C443.5,362.7,445,360.3,444,358.6z"/>
		<path class="st1" d="M434.5,383.6c1.4,0.3,2.9,0.5,3,2.3c0,0.7-0.5,1.1-1.2,1C434.3,386.6,434.7,384.9,434.5,383.6z"/>
		<path class="st1" d="M1835.4,59.8c2,0.4,4.3,1.1,5.2,3.5c0.7,2,0.9,4.3-1.4,5.4c-1.9,0.9-3-0.8-3.9-2.1c-0.9-1.2-1.7-2.4-2.3-3.6
			C1832.1,61,1833.1,59.7,1835.4,59.8z"/>
	</g>
</g>
<g id="Layer_3">
	<rect id="XMLID_18_" y="1.6" class="st7" width="2472.8" height="1546.1"/>
</g>
</svg>
